<svg width="166" height="80" viewBox="0 0 166 80" fill="none" xmlns="http://www.w3.org/2000/svg">
<path d="M2.71793 40.013L61.6137 77.9077L163.739 77.7528L163.886 58.821L111.105 2.42029H2.71793V40.013ZM61.3351 79.8202C61.1493 79.8202 60.9713 79.766 60.8165 79.6654L1.23954 41.3371C0.968626 41.159 0.79834 40.857 0.79834 40.5318V1.46014C0.79834 0.92587 1.22406 0.5 1.75813 0.5H111.523C111.786 0.5 112.042 0.608403 112.22 0.801981L165.542 57.7834C165.713 57.9615 165.806 58.2015 165.798 58.4493L165.635 78.713C165.635 79.2395 165.202 79.6654 164.676 79.6654L61.3196 79.828L61.3351 79.8202Z" fill="#3052D8"/>
<path d="M63.152 70.7678H68.2141V69.3276H63.152V70.7678ZM63.152 67.144H70.3969V72.9513H60.9692V63.5203H70.3969V65.6883H63.152V67.144Z" fill="#3052D8"/>
<path d="M80.8015 63.5203H82.9843V72.9513H73.5566V70.7678H80.8015V69.3276H73.5566V63.5203H75.7394V67.144H80.8015V63.5203Z" fill="#3052D8"/>
<path d="M89.407 70.7678H93.6719V65.6883H90.599L89.3993 67.3608V70.7678H89.407ZM95.8547 70.7291H96.9306V75.0807H94.7633V72.9513H88.3234V75.0807H86.1406V70.7291H87.232V66.4472L89.3451 63.5203H95.8469V70.7291H95.8547Z" fill="#3052D8"/>
<path d="M107.343 63.5203H109.526V72.9513H100.098V70.7678H107.343V69.3276H100.098V63.5203H102.281V67.144H107.343V63.5203Z" fill="#3052D8"/>
<path d="M122.121 70.7678H123.212V75.1194H121.029V72.9513H112.693V63.5203H114.876V70.7678H116.315V63.5203H118.498V70.7678H119.938V63.5203H122.121V70.7678Z" fill="#3052D8"/>
<path d="M135.125 65.7038H127.88V67.144H135.125V69.3276H127.88V70.7678H135.125V72.9513H125.697V63.5203H135.125V65.7038Z" fill="#3052D8"/>
<path d="M147.715 63.5203V65.6883H140.47V72.9513H138.288V63.5203H147.715Z" fill="#3052D8"/>
<path d="M153.055 70.7678H158.117V65.6883H153.055V70.7678ZM150.873 63.5203H160.3V72.9513H150.873V63.5203Z" fill="#3052D8"/>
<path d="M41.893 7.88916V26.1087H33.6496L41.893 37.4755H33.696L25.4604 26.1087H19.1675V37.4755H12.3174V7.88916H19.1598V19.256H35.0506V7.88916H41.893Z" fill="#3052D8"/>
<path d="M52.9596 30.6306H68.8504V14.6953H52.9596V30.6306ZM46.1172 7.88916H75.6928V37.4755H46.1172V7.88916Z" fill="#3052D8"/>
<path d="M90.1439 30.6286H103.535V14.6933H93.898L90.1362 19.9354V30.6286H90.1439ZM110.385 30.5047H113.767V44.1558H106.964V37.4735H86.7692V44.1558H79.9268V30.5047H83.348V17.055L89.9814 7.87939H110.392V30.497L110.385 30.5047Z" fill="#3052D8"/>
</svg>
