<svg width="473" height="80" viewBox="0 0 473 80" fill="none" xmlns="http://www.w3.org/2000/svg">
<path d="M13.0731 28.5025C9.671 28.5025 6.86059 27.4599 4.64183 25.3745C2.42308 23.2892 1.23975 20.459 1.23975 17.1821C1.23975 13.7561 2.42308 11.075 4.64183 8.98962C6.86059 6.75532 9.671 5.71265 13.0731 5.71265C17.5106 5.71265 20.6168 7.64904 22.5398 11.6708L17.8064 13.9051C17.3627 13.0114 16.771 12.2666 15.8835 11.6708C14.996 11.075 14.1085 10.7771 13.0731 10.7771C11.2981 10.7771 9.81892 11.3729 8.7835 12.5645C7.60017 13.7561 7.0085 15.2457 7.0085 17.0331C7.0085 18.8206 7.60017 20.3101 8.7835 21.5017C9.96684 22.6933 11.446 23.2892 13.221 23.2892C14.2564 23.2892 15.1439 22.9912 16.0314 22.3954C16.9189 21.7996 17.5106 21.0549 17.9543 20.1611L22.8356 22.3954C21.9481 24.0339 20.7648 25.5235 19.2856 26.5661C17.5106 27.9067 15.4398 28.5025 13.0731 28.5025Z" fill="#3052D8"/>
<path d="M43.9927 25.2256C41.7739 27.3109 38.9635 28.3536 35.7093 28.3536C32.3073 28.3536 29.4968 27.3109 27.2781 25.2256C25.0593 23.1402 24.0239 20.3101 24.0239 17.0331C24.0239 13.7561 25.0593 10.926 27.2781 8.84067C29.4968 6.75532 32.3073 5.71265 35.7093 5.71265C39.1114 5.71265 41.9218 6.75532 43.9927 8.84067C46.2114 10.926 47.2468 13.7561 47.2468 17.0331C47.2468 20.459 46.2114 23.1402 43.9927 25.2256ZM35.5614 23.4381C37.3364 23.4381 38.8156 22.8423 39.851 21.6507C40.8864 20.459 41.4781 18.9695 41.4781 17.0331C41.4781 15.2457 40.8864 13.7561 39.851 12.4156C38.8156 11.2239 37.3364 10.6281 35.5614 10.6281C33.7864 10.6281 32.3073 11.2239 31.2718 12.4156C30.2364 13.6072 29.6448 15.0967 29.6448 17.0331C29.6448 18.8206 30.2364 20.3101 31.2718 21.6507C32.4552 22.8423 33.7864 23.4381 35.5614 23.4381Z" fill="#3052D8"/>
<path d="M48.1255 32.226V23.5867C49.3088 23.4378 50.1963 22.842 50.788 22.0972C51.3797 21.3524 51.8234 19.7139 52.1192 17.3307L53.4505 6.15918H69.7214V23.1399H71.6443V32.0771H66.0235V28.0553H53.7463V32.0771H48.1255V32.226ZM57.7401 17.6286C57.4443 20.0119 56.7047 21.7993 55.3734 23.1399H64.1006V11.0746H58.4797L57.7401 17.6286Z" fill="#3052D8"/>
<path d="M90.8808 28.0553H74.9058V6.15918H90.8808V11.0746H80.5266V14.5006H90.7329V19.416H80.5266V23.1399H90.8808V28.0553Z" fill="#3052D8"/>
<path d="M99.6087 28.0564H94.1357V6.16023H99.7566V19.1192L108.632 6.16023H114.4V28.2054H108.78V14.5016L99.6087 28.0564ZM109.963 2.28744C108.484 4.22384 106.561 5.11756 104.194 5.11756C101.827 5.11756 99.9045 4.22384 98.4253 2.28744L100.644 0.5C101.532 1.84058 102.715 2.4364 104.194 2.4364C105.673 2.4364 106.857 1.84058 107.744 0.5L109.963 2.28744Z" fill="#3052D8"/>
<path d="M129.043 28.5035C125.641 28.5035 122.831 27.4608 120.612 25.3755C118.393 23.2901 117.21 20.46 117.21 17.183C117.21 13.7571 118.393 11.0759 120.612 8.99057C122.831 6.90522 125.641 5.86255 129.043 5.86255C133.481 5.86255 136.587 7.79894 138.51 11.8207L133.777 13.906C133.333 13.0123 132.741 12.2675 131.854 11.6717C130.966 11.0759 130.079 10.778 129.043 10.778C127.268 10.778 125.789 11.3738 124.606 12.5655C123.422 13.7571 122.831 15.2466 122.831 17.0341C122.831 18.8215 123.422 20.311 124.606 21.5027C125.789 22.6943 127.268 23.2901 129.043 23.2901C130.079 23.2901 130.966 22.9922 131.854 22.3964C132.741 21.8006 133.333 21.0558 133.777 20.1621L138.658 22.3964C137.77 24.0349 136.587 25.5244 135.108 26.5671C133.481 27.9077 131.41 28.5035 129.043 28.5035Z" fill="#3052D8"/>
<path d="M151.528 28.0553H145.907V11.0746H139.842V6.15918H157.74V11.0746H151.676V28.0553H151.528Z" fill="#3052D8"/>
<path d="M173.123 28.0553H160.402V6.15918H172.827C174.898 6.15918 176.377 6.75499 177.56 7.79767C178.743 8.84034 179.187 10.1809 179.187 11.6705C179.187 13.011 178.891 14.0537 178.152 14.9474C177.412 15.8412 176.525 16.437 175.489 16.7349C176.673 16.8838 177.708 17.4796 178.448 18.5223C179.187 19.565 179.631 20.7566 179.631 22.0972C179.631 23.7357 179.039 25.2252 178.004 26.4168C176.673 27.4595 175.193 28.0553 173.123 28.0553ZM171.348 14.5006C171.939 14.5006 172.383 14.3516 172.679 14.0537C172.975 13.7558 173.271 13.3089 173.271 12.7131C173.271 12.1173 173.123 11.8194 172.679 11.3726C172.383 11.0746 171.791 10.9257 171.348 10.9257H165.875V14.6495H171.348V14.5006ZM171.643 23.2888C172.383 23.2888 172.827 23.1399 173.271 22.693C173.714 22.3951 173.862 21.7993 173.862 21.2035C173.862 20.6077 173.714 20.1608 173.271 19.7139C172.827 19.2671 172.383 19.1181 171.643 19.1181H166.023V23.1399H171.643V23.2888Z" fill="#3052D8"/>
<path d="M188.063 28.0553H182.59V6.15918H188.211V19.1181L197.086 6.15918H202.855V28.2043H197.234V14.5006L188.063 28.0553Z" fill="#3052D8"/>
<path d="M222.823 28.0553H206.848V6.15918H222.823V11.0746H212.469V14.5006H222.675V19.416H212.469V23.1399H222.823V28.0553Z" fill="#3052D8"/>
<path d="M10.265 68.1244C8.19417 68.1244 6.41917 67.8265 4.64417 67.2307C3.01709 66.6348 1.68584 65.7411 0.79834 64.6984L3.60876 60.8256C4.34834 61.5704 5.38376 62.1662 6.56709 62.4641C7.89834 62.911 9.08167 63.06 10.1171 63.06C11.4483 63.06 12.3358 62.911 13.0754 62.4641C13.815 62.0173 14.1108 61.5704 14.1108 60.9746C14.1108 60.3788 13.815 59.9319 13.0754 59.634C12.4838 59.3361 11.3004 59.1872 9.82126 59.1872H5.38376V54.1227H9.82126C12.3358 54.1227 13.6671 53.5269 13.6671 52.3353C13.6671 51.7395 13.3713 51.1437 12.6317 50.8458C11.8921 50.5478 11.0046 50.3989 9.67334 50.3989C7.45459 50.3989 5.38376 51.1437 3.90459 52.4842L1.24209 48.9094C2.12959 47.8667 3.46084 46.973 5.08792 46.3771C6.71501 45.7813 8.49001 45.3345 10.4129 45.3345C13.2233 45.3345 15.4421 45.9303 17.0692 46.973C18.6963 48.0156 19.4358 49.5052 19.4358 51.2926C19.4358 52.4842 18.9921 53.6759 18.1046 54.5696C17.2171 55.4633 16.0338 56.0591 14.7025 56.2081C16.0338 56.357 17.2171 56.8039 18.2525 57.8466C19.2879 58.7403 19.8796 59.9319 19.8796 61.4215C19.8796 63.3579 18.9921 64.8474 17.2171 66.188C15.2942 67.3796 13.0754 68.1244 10.265 68.1244Z" fill="#3052D8"/>
<path d="M43.9919 67.677H37.6315L36.5961 64.5489H28.0169L26.9815 67.677H20.6211L28.9044 45.6318H36.0044L43.9919 67.677ZM34.969 59.4845L32.1586 51.1431L29.3482 59.4845H34.969Z" fill="#3052D8"/>
<path d="M66.0307 67.677H60.4098V58.8887H51.239V67.677H45.6182V45.6318H51.239V53.8243H60.2619V45.6318H66.0307V67.677Z" fill="#3052D8"/>
<path d="M75.4986 67.6791H68.9902L73.4277 59.6356C72.2444 59.1888 71.209 58.444 70.3215 57.4013C69.434 56.3587 68.9902 54.8691 68.9902 53.0817C68.9902 50.9963 69.7298 49.2089 71.0611 47.8683C72.3923 46.5277 74.3152 45.783 76.6819 45.783H87.6277V67.8281H82.0069V60.3804H79.1965L75.4986 67.6791ZM77.5694 55.316H82.0069V50.5495H77.5694C76.8298 50.5495 76.2382 50.6984 75.6465 51.1453C75.2027 51.5921 74.9069 52.188 74.9069 52.9327C74.9069 53.6775 75.2027 54.2733 75.6465 54.7202C76.0902 55.167 76.6819 55.316 77.5694 55.316Z" fill="#3052D8"/>
<path d="M102.122 67.677H96.5016V50.5473H90.437V45.6318H108.335V50.5473H102.27V67.677H102.122Z" fill="#3052D8"/>
<path d="M129.783 64.8474C127.564 66.9327 124.753 67.9754 121.499 67.9754C118.097 67.9754 115.287 66.9327 113.068 64.8474C110.849 62.762 109.814 59.9319 109.814 56.6549C109.814 53.378 110.849 50.5478 113.068 48.4625C115.287 46.3771 118.097 45.3345 121.499 45.3345C124.901 45.3345 127.712 46.3771 129.783 48.4625C132.001 50.5478 133.037 53.378 133.037 56.6549C133.037 59.9319 132.001 62.762 129.783 64.8474ZM121.351 63.0599C123.126 63.0599 124.606 62.4641 125.641 61.2725C126.676 60.0809 127.268 58.5913 127.268 56.6549C127.268 54.8675 126.676 53.378 125.641 52.0374C124.606 50.8458 123.126 50.2499 121.351 50.2499C119.576 50.2499 118.097 50.8458 117.062 52.0374C116.026 53.229 115.435 54.7185 115.435 56.6549C115.435 58.4424 116.026 59.9319 117.062 61.2725C118.245 62.4641 119.576 63.0599 121.351 63.0599Z" fill="#3052D8"/>
<path d="M146.645 68.126C143.243 68.126 140.433 67.0834 138.214 64.998C135.995 62.9127 134.812 60.0826 134.812 56.8056C134.812 53.3796 135.995 50.6985 138.214 48.6131C140.433 46.5278 143.243 45.4851 146.645 45.4851C151.083 45.4851 154.189 47.4215 156.112 51.4432L151.231 53.6776C150.787 52.7838 150.195 52.0391 149.308 51.4432C148.42 50.8474 147.533 50.5495 146.497 50.5495C144.722 50.5495 143.243 51.1453 142.06 52.337C140.877 53.5286 140.285 55.0181 140.285 56.8056C140.285 58.593 140.877 60.0826 142.06 61.2742C143.243 62.4658 144.722 63.0616 146.497 63.0616C147.533 63.0616 148.42 62.7637 149.308 62.1679C150.195 61.5721 150.787 60.8273 151.231 59.9336L156.112 62.1679C155.225 63.8064 154.041 65.2959 152.562 66.3386C150.935 67.5302 149.012 68.126 146.645 68.126Z" fill="#3052D8"/>
<path d="M169.129 67.677H163.508V50.5473H157.443V45.6318H175.341V50.5473H169.277V67.677H169.129Z" fill="#3052D8"/>
<path d="M183.329 67.677H177.856V45.6318H183.477V58.5908L192.352 45.6318H198.121V67.677H192.5V54.1222L183.329 67.677Z" fill="#3052D8"/>
<path d="M240.127 6.15771H238.502V67.3776H240.127V6.15771Z" fill="#3052D8"/>
<path d="M263.5 28.0568V25.8225C261.873 25.6736 260.541 25.3756 259.21 24.9288C258.027 24.4819 256.843 23.8861 256.104 23.1413C255.216 22.3966 254.625 21.5029 254.033 20.4602C253.589 19.4175 253.293 18.2259 253.293 17.0342C253.293 15.8426 253.589 14.651 254.033 13.6083C254.477 12.5656 255.216 11.6719 256.104 10.9272C256.991 10.1824 258.027 9.58658 259.21 9.13971C260.393 8.69285 261.873 8.39495 263.5 8.24599V6.16064H266.162V8.39495C267.789 8.5439 269.12 8.84181 270.452 9.28867C271.635 9.73553 272.818 10.3313 273.706 11.0761C274.593 11.8209 275.185 12.7146 275.777 13.7573C276.22 14.7999 276.516 15.8426 276.516 17.1832C276.516 18.3748 276.22 19.5665 275.777 20.6091C275.333 21.6518 274.593 22.5455 273.706 23.2903C272.818 24.0351 271.783 24.6309 270.452 25.0777C269.268 25.5246 267.789 25.8225 266.162 25.9715V28.2058H263.5V28.0568ZM256.104 17.0342C256.104 18.8217 256.696 20.1623 258.027 21.3539C259.358 22.5455 261.133 23.1413 263.352 23.2903V10.7782C260.985 10.9272 259.21 11.6719 258.027 12.7146C256.843 13.9062 256.104 15.3958 256.104 17.0342ZM273.41 17.0342C273.41 15.2468 272.818 13.9062 271.487 12.7146C270.156 11.523 268.381 10.9272 266.162 10.7782V23.4392C268.529 23.2903 270.304 22.5455 271.487 21.5029C272.818 20.3112 273.41 18.8217 273.41 17.0342Z" fill="#3052D8"/>
<path d="M287.463 28.3542C286.279 28.3542 285.244 28.2052 284.208 27.7584C283.173 27.3115 282.433 26.7157 281.694 26.1199C280.954 25.3751 280.363 24.4814 280.067 23.4387C279.623 22.396 279.475 21.3534 279.475 20.0128C279.475 18.8211 279.623 17.7785 280.067 16.7358C280.51 15.6931 280.954 14.7994 281.694 14.0546C282.433 13.3099 283.173 12.7141 284.208 12.2672C285.096 11.8203 286.131 11.6714 287.315 11.6714C288.498 11.6714 289.533 11.8203 290.569 12.2672C291.456 12.7141 292.344 13.3099 292.935 14.0546C293.527 14.7994 294.119 15.6931 294.415 16.7358C294.71 17.7785 294.858 18.8211 294.858 20.0128V20.6086H281.99C281.99 21.3534 282.138 22.0981 282.433 22.6939C282.729 23.2898 283.173 23.8856 283.617 24.4814C284.06 24.9282 284.652 25.3751 285.392 25.673C286.131 25.9709 286.871 26.1199 287.61 26.1199C288.498 26.1199 289.385 25.9709 290.273 25.5241C291.16 25.2261 291.9 24.6303 292.492 24.0345L293.675 25.673C292.935 26.4178 292.048 27.0136 291.013 27.4604C289.977 28.2052 288.794 28.3542 287.463 28.3542ZM292.344 19.1191C292.344 18.5232 292.196 17.9274 292.048 17.3316C291.9 16.7358 291.456 16.14 291.16 15.6931C290.717 15.2463 290.273 14.7994 289.533 14.5015C288.942 14.2036 288.054 14.0546 287.167 14.0546C286.279 14.0546 285.54 14.2036 284.948 14.5015C284.356 14.7994 283.765 15.2463 283.321 15.6931C282.877 16.14 282.581 16.7358 282.285 17.3316C281.99 17.9274 281.99 18.5232 281.842 19.1191H292.344Z" fill="#3052D8"/>
<path d="M296.78 25.9713C297.076 25.9713 297.52 25.8224 297.816 25.5244C298.112 25.2265 298.407 25.0776 298.703 24.6307C298.999 24.1839 299.147 23.588 299.443 22.8433C299.591 22.0985 299.739 21.2048 300.034 20.0132L301.07 12.2676H312.016V25.8224H313.791V32.0784H311.276V28.0567H299.443V32.0784H296.78V25.9713ZM302.253 20.3111C302.105 21.8006 301.809 22.9922 301.366 23.886C300.922 24.7797 300.478 25.3755 299.887 25.8224H309.205V14.3529H302.845L302.253 20.3111Z" fill="#3052D8"/>
<path d="M323.998 28.3542C322.814 28.3542 321.779 28.2052 320.744 27.7584C319.708 27.3115 318.969 26.7157 318.229 26.1199C317.489 25.3751 316.898 24.4814 316.602 23.4387C316.158 22.396 316.01 21.3534 316.01 20.0128C316.01 18.8211 316.158 17.7785 316.602 16.7358C317.046 15.6931 317.489 14.7994 318.229 14.0546C318.969 13.3099 319.708 12.7141 320.744 12.2672C321.631 11.8203 322.667 11.6714 323.85 11.6714C325.033 11.6714 326.069 11.8203 327.104 12.2672C327.992 12.7141 328.879 13.3099 329.471 14.0546C330.062 14.7994 330.654 15.6931 330.95 16.7358C331.246 17.7785 331.394 18.8211 331.394 20.0128V20.6086H318.673C318.673 21.3534 318.821 22.0981 319.117 22.6939C319.412 23.2898 319.856 23.8856 320.3 24.4814C320.744 24.9282 321.335 25.3751 322.075 25.673C322.814 25.9709 323.554 26.1199 324.294 26.1199C325.181 26.1199 326.069 25.9709 326.956 25.5241C327.844 25.2261 328.583 24.6303 329.175 24.0345L330.358 25.673C329.619 26.4178 328.731 27.0136 327.696 27.4604C326.512 28.2052 325.329 28.3542 323.998 28.3542ZM328.879 19.1191C328.879 18.5232 328.731 17.9274 328.583 17.3316C328.435 16.7358 327.992 16.14 327.696 15.6931C327.252 15.2463 326.808 14.7994 326.069 14.5015C325.477 14.2036 324.589 14.0546 323.702 14.0546C322.814 14.0546 322.075 14.2036 321.483 14.5015C320.892 14.7994 320.3 15.2463 319.856 15.6931C319.412 16.14 319.117 16.7358 318.821 17.3316C318.525 17.9274 318.525 18.5232 318.377 19.1191H328.879Z" fill="#3052D8"/>
<path d="M343.078 28.3537C342.043 28.3537 341.007 28.0558 340.12 27.6089C339.232 27.162 338.493 26.4173 337.753 25.5235V34.0139H335.239V12.1177H337.753V14.501C338.345 13.7562 339.085 13.0115 339.972 12.5646C340.86 12.1177 341.895 11.8198 343.078 11.8198C344.114 11.8198 345.001 11.9688 345.889 12.4156C346.776 12.8625 347.516 13.3094 348.107 14.0541C348.699 14.7989 349.143 15.6926 349.587 16.7353C349.882 17.778 350.03 18.9696 350.03 20.1612C350.03 21.5018 349.882 22.5445 349.587 23.5871C349.291 24.6298 348.699 25.5235 348.107 26.2683C347.516 27.0131 346.776 27.6089 345.889 27.9068C345.001 28.2047 344.114 28.3537 343.078 28.3537ZM342.487 26.1194C343.226 26.1194 343.966 25.9704 344.557 25.6725C345.149 25.3746 345.741 24.9277 346.185 24.3319C346.628 23.7361 346.924 23.1403 347.22 22.3955C347.516 21.6508 347.516 20.757 347.516 20.0123C347.516 19.1185 347.368 18.3738 347.22 17.629C346.924 16.8842 346.628 16.2884 346.185 15.6926C345.741 15.0968 345.149 14.6499 344.557 14.352C343.966 14.0541 343.226 13.9052 342.487 13.9052C341.451 13.9052 340.564 14.2031 339.676 14.6499C338.789 15.0968 338.197 15.6926 337.753 16.4374V23.5871C338.197 24.3319 338.789 24.9277 339.676 25.3746C340.564 25.9704 341.451 26.1194 342.487 26.1194Z" fill="#3052D8"/>
<path d="M363.788 28.0558V26.2683C362.456 27.7578 360.681 28.5026 358.611 28.5026C357.871 28.5026 357.279 28.3537 356.688 28.2047C356.096 28.0558 355.504 27.6089 354.913 27.162C354.321 26.7152 354.025 26.1194 353.581 25.5235C353.286 24.9277 353.138 24.183 353.138 23.2892C353.138 22.3955 353.286 21.6508 353.581 21.0549C353.877 20.4591 354.321 19.8633 354.913 19.4165C355.504 18.9696 355.948 18.6717 356.688 18.5227C357.279 18.3738 358.019 18.2248 358.611 18.2248C359.646 18.2248 360.681 18.3738 361.569 18.8206C362.456 19.1185 363.196 19.7144 363.788 20.4591V17.629C363.788 16.5863 363.344 15.6926 362.604 15.0968C361.865 14.2031 360.977 13.9052 359.794 13.9052C358.019 13.9052 356.392 14.6499 354.913 16.1395L353.729 14.501C355.356 12.7135 357.427 11.8198 359.942 11.8198C360.829 11.8198 361.569 11.9688 362.308 12.1177C363.048 12.2667 363.64 12.5646 364.231 13.0115C364.823 13.4583 365.267 14.0541 365.563 14.6499C365.858 15.3947 366.006 16.1395 366.006 17.1822V28.0558H363.788ZM359.35 26.5662C360.238 26.5662 360.977 26.4173 361.865 26.1194C362.604 25.8215 363.196 25.2256 363.788 24.6298V21.6508C363.344 21.0549 362.752 20.4591 361.865 20.1612C361.125 19.8633 360.238 19.7144 359.35 19.7144C358.167 19.7144 357.279 20.0123 356.54 20.6081C355.8 21.2039 355.504 22.0976 355.504 23.1403C355.504 24.183 355.8 24.9277 356.54 25.6725C357.279 26.2683 358.315 26.5662 359.35 26.5662Z" fill="#3052D8"/>
<path d="M369.26 26.4182C370 26.4182 370.591 25.9713 371.035 24.9286C371.479 24.0349 371.923 22.2475 372.219 20.0132L373.254 12.2676H384.2V28.0566H381.685V14.3529H375.325L374.585 20.3111C374.437 21.8006 374.141 22.9922 373.846 24.0349C373.55 25.0776 373.106 25.8223 372.662 26.5671C372.219 27.1629 371.627 27.6098 371.035 27.9077C370.444 28.2056 369.704 28.3546 368.964 28.3546V26.4182H369.26Z" fill="#3052D8"/>
<path d="M391.448 12.1196V18.2267H397.364C398.104 18.2267 398.844 18.3757 399.435 18.6736C400.027 18.9715 400.619 19.2694 401.062 19.7163C401.506 20.1631 401.802 20.61 401.95 21.2058C402.098 21.8016 402.246 22.3974 402.246 22.9932C402.246 23.589 402.098 24.3338 401.95 24.9296C401.802 25.5254 401.358 25.9723 401.062 26.4192C400.619 26.866 400.175 27.1639 399.583 27.4618C398.992 27.7597 398.252 27.9087 397.512 27.9087H389.229V12.1196H391.448ZM391.448 20.461V25.8233H397.069C397.956 25.8233 398.696 25.5254 399.139 25.0786C399.583 24.6317 399.879 23.887 399.879 23.1422C399.879 22.3974 399.583 21.8016 399.139 21.2058C398.696 20.7589 397.956 20.461 397.069 20.461H391.448Z" fill="#3052D8"/>
<path d="M406.092 28.0577V12.1196H408.607V18.6736H416.742V12.1196H419.257V27.9087H416.742V20.7589H408.607V27.9087H406.092V28.0577Z" fill="#3052D8"/>
<path d="M426.504 12.1196V18.2267H432.421C433.161 18.2267 433.9 18.3757 434.492 18.6736C435.083 18.9715 435.675 19.2694 436.119 19.7163C436.563 20.1631 436.858 20.61 437.006 21.2058C437.154 21.8016 437.302 22.3974 437.302 22.9932C437.302 23.589 437.154 24.3338 437.006 24.9296C436.858 25.5254 436.415 25.9723 436.119 26.4192C435.675 26.866 435.231 27.1639 434.64 27.4618C434.048 27.7597 433.308 27.9087 432.569 27.9087H423.99V12.1196H426.504ZM426.504 20.461V25.8233H432.125C433.013 25.8233 433.752 25.5254 434.196 25.0786C434.64 24.6317 434.935 23.887 434.935 23.1422C434.935 22.3974 434.64 21.8016 434.196 21.2058C433.752 20.7589 433.013 20.461 432.125 20.461H426.504ZM439.817 28.0577V12.1196H442.331V27.9087H439.817V28.0577Z" fill="#3052D8"/>
<path d="M447.213 28.057V12.119H449.727V24.1842L458.011 12.119H460.378V27.908H457.863V15.5449L449.58 27.908H447.213V28.057ZM456.975 9.58676C455.94 10.0336 454.905 10.3315 453.721 10.3315C452.538 10.3315 451.502 10.0336 450.467 9.58676C449.432 9.1399 448.692 8.39514 447.952 7.50141L449.136 6.45874C449.727 7.20351 450.319 7.79932 451.059 8.24618C451.798 8.69304 452.686 8.842 453.721 8.842C454.609 8.842 455.496 8.69304 456.384 8.24618C457.123 7.79932 457.863 7.20351 458.307 6.45874L459.49 7.50141C458.75 8.39514 458.011 9.1399 456.975 9.58676Z" fill="#3052D8"/>
<path d="M264.829 67.3819V53.6782H256.694V67.3819H254.179V51.4438H267.196V67.2329H264.829V67.3819Z" fill="#3052D8"/>
<path d="M279.771 67.6796C278.735 67.6796 277.7 67.3817 276.812 66.9348C275.925 66.488 275.185 65.7432 274.446 64.8495V73.3398H271.931V51.4437H274.446V53.8269C275.037 53.0821 275.777 52.3374 276.665 51.8905C277.552 51.4437 278.587 51.1458 279.771 51.1458C280.806 51.1458 281.694 51.2947 282.581 51.7416C283.469 52.1884 284.208 52.6353 284.8 53.3801C285.392 54.1248 285.835 55.0185 286.279 56.0612C286.575 57.1039 286.723 58.2955 286.723 59.4871C286.723 60.8277 286.575 61.8704 286.279 62.9131C285.983 63.9558 285.392 64.8495 284.8 65.5942C284.208 66.339 283.469 66.9348 282.581 67.2327C281.842 67.5306 280.954 67.6796 279.771 67.6796ZM279.179 65.5942C279.919 65.5942 280.658 65.4453 281.25 65.1474C281.842 64.8495 282.433 64.4026 282.877 63.8068C283.321 63.211 283.617 62.6152 283.913 61.8704C284.208 61.1256 284.208 60.2319 284.208 59.4871C284.208 58.5934 284.06 57.8487 283.913 57.1039C283.617 56.3591 283.321 55.7633 282.877 55.1675C282.433 54.5717 281.842 54.1248 281.25 53.8269C280.658 53.529 279.919 53.3801 279.179 53.3801C278.144 53.3801 277.256 53.678 276.369 54.1248C275.481 54.5717 274.89 55.1675 274.446 55.9123V63.062C274.89 63.8068 275.481 64.4026 276.369 64.8495C277.404 65.2963 278.292 65.5942 279.179 65.5942Z" fill="#3052D8"/>
<path d="M297.52 67.6772C296.337 67.6772 295.302 67.5282 294.266 67.0814C293.231 66.6345 292.491 66.0387 291.752 65.2939C291.012 64.5492 290.568 63.6554 290.272 62.6128C289.977 61.5701 289.681 60.5274 289.681 59.3358C289.681 58.1442 289.829 57.1015 290.272 56.0588C290.568 55.0161 291.16 54.1224 291.752 53.3776C292.491 52.6329 293.231 52.0371 294.266 51.5902C295.302 51.1433 296.337 50.9944 297.52 50.9944C298.704 50.9944 299.739 51.1433 300.774 51.5902C301.81 52.0371 302.549 52.6329 303.289 53.3776C304.029 54.1224 304.472 55.0161 304.768 56.0588C305.064 57.1015 305.36 58.1442 305.36 59.3358C305.36 60.5274 305.212 61.5701 304.768 62.6128C304.472 63.6554 303.881 64.5492 303.289 65.2939C302.549 66.0387 301.81 66.6345 300.774 67.0814C299.887 67.5282 298.852 67.6772 297.52 67.6772ZM297.52 65.5918C298.408 65.5918 299.147 65.4429 299.739 65.145C300.331 64.8471 300.922 64.4002 301.366 63.8044C301.81 63.2086 302.106 62.6128 302.402 61.868C302.697 61.1232 302.697 60.3785 302.697 59.4847C302.697 58.74 302.549 57.8462 302.402 57.1015C302.106 56.3567 301.81 55.7609 301.366 55.1651C300.922 54.5693 300.331 54.1224 299.739 53.8245C299.147 53.5266 298.408 53.3776 297.52 53.3776C296.633 53.3776 295.893 53.5266 295.302 53.8245C294.71 54.1224 294.118 54.5693 293.674 55.1651C293.231 55.7609 292.935 56.3567 292.639 57.1015C292.343 57.8462 292.343 58.591 292.343 59.4847C292.343 60.2295 292.491 61.1232 292.639 61.868C292.935 62.6128 293.231 63.2086 293.674 63.8044C294.118 64.4002 294.71 64.8471 295.302 65.145C296.041 65.2939 296.781 65.5918 297.52 65.5918Z" fill="#3052D8"/>
<path d="M316.454 67.6772C315.271 67.6772 314.235 67.5282 313.2 67.0814C312.164 66.6345 311.425 66.0387 310.685 65.4429C309.945 64.6981 309.354 63.8044 309.058 62.7617C308.614 61.719 308.466 60.6764 308.466 59.3358C308.466 58.1442 308.614 57.1015 309.058 56.0588C309.502 55.0161 309.945 54.1224 310.685 53.3776C311.425 52.6329 312.164 52.0371 313.2 51.5902C314.087 51.1433 315.123 50.9944 316.306 50.9944C317.489 50.9944 318.525 51.1433 319.56 51.5902C320.448 52.0371 321.335 52.6329 321.927 53.3776C322.519 54.1224 323.11 55.0161 323.406 56.0588C323.702 57.1015 323.85 58.1442 323.85 59.3358V59.9316H311.129C311.129 60.6764 311.277 61.4211 311.573 62.0169C311.868 62.6128 312.312 63.2086 312.756 63.8044C313.2 64.2512 313.791 64.6981 314.531 64.996C315.271 65.2939 316.01 65.4429 316.75 65.4429C317.637 65.4429 318.525 65.2939 319.412 64.8471C320.3 64.5492 321.039 63.9533 321.631 63.3575L322.814 64.996C322.075 65.7408 321.187 66.3366 320.152 66.7835C318.968 67.5282 317.785 67.6772 316.454 67.6772ZM321.335 58.4421C321.335 57.8462 321.187 57.2504 321.039 56.6546C320.891 56.0588 320.448 55.463 320.152 55.0161C319.708 54.5693 319.264 54.1224 318.525 53.8245C317.933 53.5266 317.046 53.3776 316.158 53.3776C315.271 53.3776 314.531 53.5266 313.939 53.8245C313.348 54.1224 312.756 54.5693 312.312 55.0161C311.868 55.463 311.573 56.0588 311.277 56.6546C310.981 57.2504 310.981 57.8462 310.833 58.4421H321.335Z" fill="#3052D8"/>
<path d="M338.345 67.3819L332.724 60.2321L330.062 62.7643V67.2329H327.547V51.4438H330.062V59.9342L338.345 51.4438H341.452L334.499 58.5936L341.452 67.2329H338.345V67.3819Z" fill="#3052D8"/>
<path d="M347.22 67.3819V53.6782H342.635V51.4438H354.172V53.6782H349.587V67.3819H347.22Z" fill="#3052D8"/>
</svg>
