<svg width="179" height="80" viewBox="0 0 179 80" fill="none" xmlns="http://www.w3.org/2000/svg">
<g clip-path="url(#clip0_237_48)">
<path d="M16.2622 43.0733V19.0342H28.0738V43.842C28.0738 47.536 30.4911 51.3295 35.2741 51.3295C39.9971 51.3295 42.4185 47.536 42.4185 43.842V19.0342H54.226V43.0133C54.226 52.5954 48.2354 62.0179 35.2741 62.0179C22.3107 62.0179 16.2622 52.5953 16.2622 43.0733Z" fill="#2F51D5"/>
<path d="M65.8221 4.49444H60.0259L56.1735 5.55728V6.93917H43.541V5.47855L39.6699 3.97856H36.535L35.8795 3.62014C35.9002 3.55384 35.9209 3.48754 35.9209 3.41296C35.9209 3.13534 35.7472 2.89915 35.5032 2.80178V0.5H35.0172V2.80592C34.7753 2.90329 34.6037 3.13948 34.6037 3.41503C34.6037 3.48754 34.6223 3.55384 34.645 3.61807L33.9833 3.97856H30.6996L27.0146 5.53241V6.9371H14.2994V5.55935L10.447 4.49237H4.65076L0.79834 5.56142V11.0973V45.309C0.79834 64.1604 16.1067 79.5 34.9242 79.5H35.5632C54.3807 79.5 69.689 64.1624 69.689 45.309V7.65809H69.6766V5.56556L65.8221 4.49444ZM64.7675 45.309C64.7675 61.4442 51.6656 74.5712 35.5611 74.5712H34.9221C18.8176 74.5712 5.7157 61.4442 5.7157 45.309V11.6442H64.7675V45.309Z" fill="#2F51D5"/>
<path d="M78.2109 32.9382H85.743V34.4426H82.7794V42.0926H81.1746V34.4426H78.2109V32.9382Z" fill="#2F51D5"/>
<path d="M87.8317 36.0645C89.7757 36.0645 91.029 37.3844 91.029 39.1518C91.029 40.9193 89.7757 42.2392 87.8317 42.2392C85.8856 42.2392 84.6323 40.9172 84.6323 39.1518C84.6323 37.3864 85.8877 36.0645 87.8317 36.0645ZM87.8317 40.8385C88.7582 40.8385 89.4366 40.1713 89.4366 39.1518C89.4366 38.1572 88.7458 37.4776 87.8317 37.4776C86.9445 37.4776 86.2392 38.1324 86.2392 39.1518C86.2392 40.1319 86.9197 40.8385 87.8317 40.8385Z" fill="#2F51D5"/>
<path d="M92.3369 36.2075H93.6936L95.6914 38.6671L97.5837 36.2075H98.9032V42.0922H97.4017V38.4972L95.6666 40.6936H95.6273L93.8384 38.4972V42.0943H92.3369V36.2075Z" fill="#2F51D5"/>
<path d="M105.729 41.2176C105.233 41.8848 104.346 42.237 103.392 42.237C101.488 42.237 100.208 41.0083 100.208 39.1496C100.208 37.436 101.461 36.0623 103.25 36.0623C104.216 36.0623 105.063 36.3109 105.614 36.86L104.908 38.0494C104.464 37.6184 103.982 37.4733 103.446 37.4733C102.611 37.4733 101.814 38.1136 101.814 39.1476C101.814 40.194 102.623 40.8342 103.51 40.8342C104.149 40.8342 104.646 40.5338 105.024 40.1152L105.729 41.2176Z" fill="#2F51D5"/>
<path d="M106.93 36.2075H108.431V42.0922H106.93V36.2075ZM110.232 39.0069L112.766 42.0943H110.807L108.485 39.125L110.601 36.2096H112.493L110.232 39.0069Z" fill="#2F51D5"/>
<path d="M113.653 42.0922V36.2075H115.154V39.9352L117.895 36.2075H119.396V42.0922H117.895V38.3645L115.154 42.0922H113.653Z" fill="#2F51D5"/>
<path d="M121.067 42.0924V36.2077H122.569V39.9354L125.309 36.2077H126.811V42.0924H125.309V38.3647L122.569 42.0924H121.067ZM123.311 33.2654C123.311 33.7482 123.493 34.2206 123.99 34.2206C124.434 34.2206 124.616 33.7502 124.616 33.2654H125.987C125.987 34.3905 125.309 35.2919 123.99 35.2919C122.527 35.2919 121.94 34.4029 121.94 33.2654H123.311Z" fill="#2F51D5"/>
<path d="M78.9165 49.3655H82.8583V50.7786H80.418V55.2522H78.9165V49.3655Z" fill="#2F51D5"/>
<path d="M86.462 49.2205C88.406 49.2205 89.6593 50.5424 89.6593 52.3078C89.6593 54.0732 88.406 55.3952 86.462 55.3952C84.5159 55.3952 83.2647 54.0732 83.2647 52.3078C83.2626 50.5424 84.5159 49.2205 86.462 49.2205ZM86.462 53.9945C87.3885 53.9945 88.0668 53.3273 88.0668 52.3078C88.0668 51.3133 87.3761 50.6336 86.462 50.6336C85.5747 50.6336 84.8695 51.2884 84.8695 52.3078C84.8695 53.2879 85.5479 53.9945 86.462 53.9945Z" fill="#2F51D5"/>
<path d="M96.1215 54.3738C95.6251 55.041 94.7379 55.3933 93.7845 55.3933C91.8798 55.3933 90.5996 54.1645 90.5996 52.3059C90.5996 50.5923 91.8529 49.2185 93.6418 49.2185C94.6076 49.2185 95.4556 49.4672 96.0057 50.0163L95.3004 51.2056C94.8558 50.7746 94.3739 50.6296 93.8383 50.6296C93.0028 50.6296 92.2065 51.2699 92.2065 52.3038C92.2065 53.3502 93.0152 53.9905 93.9024 53.9905C94.5414 53.9905 95.0378 53.69 95.4163 53.2715L96.1215 54.3738Z" fill="#2F51D5"/>
<path d="M100.495 55.25C99.6351 57.3553 99.085 57.865 98.2246 57.865C97.689 57.865 97.2981 57.6557 96.9569 57.4071L97.4408 56.2695C97.598 56.3607 97.8193 56.4788 98.055 56.4788C98.4335 56.4788 98.7086 56.1783 98.9567 55.5629L99.087 55.248L96.3716 49.3633H98.1729L99.5441 52.5812C99.662 52.8692 99.7406 53.1427 99.8316 53.4308C99.8833 53.1572 99.937 52.8692 100.04 52.5667L101.097 49.3633H102.808L100.495 55.25Z" fill="#2F51D5"/>
<path d="M102.517 53.8515H103.262C103.679 53.3024 104.006 52.113 104.085 50.7786L104.176 49.3655H108.511V53.8515H109.489V56.6239H108.078V55.2502H103.913V56.6239H102.517V53.8515ZM104.829 53.8515H107.009V50.7786H105.574L105.534 51.3795C105.417 52.6207 105.09 53.4848 104.829 53.8515Z" fill="#2F51D5"/>
<path d="M110.559 49.7839C111.068 49.4835 111.864 49.2224 112.635 49.2224C114.371 49.2224 114.985 50.1113 114.985 51.6675V55.2501H113.68V54.5704C113.367 55.0159 112.739 55.3288 111.945 55.3288C110.873 55.3288 110.104 54.6616 110.104 53.524C110.104 52.229 111.057 51.6157 112.245 51.6157C112.768 51.6157 113.289 51.7856 113.576 51.9948C113.616 51.0148 113.355 50.4781 112.48 50.4781C111.802 50.4781 111.37 50.6874 110.94 50.8842L110.559 49.7839ZM113.574 53.524V52.9231C113.314 52.7263 112.975 52.6351 112.542 52.6351C112.046 52.6351 111.603 52.8713 111.603 53.3666C111.603 53.812 111.969 54.0586 112.439 54.0586C113.066 54.0607 113.392 53.7851 113.574 53.524Z" fill="#2F51D5"/>
<path d="M116.524 49.3655H118.025V49.927C118.391 49.5354 119.082 49.2205 119.839 49.2205C121.458 49.2205 122.503 50.4761 122.503 52.2146C122.503 54.0069 121.276 55.3932 119.397 55.3932C118.873 55.3932 118.365 55.302 118.025 55.1051V57.8651H116.524V49.3655ZM118.025 51.2739V53.6547C118.429 53.9158 118.77 53.9945 119.264 53.9945C120.309 53.9945 120.908 53.2361 120.908 52.256C120.908 51.3133 120.36 50.6336 119.368 50.6336C118.861 50.6336 118.391 50.8698 118.025 51.2739Z" fill="#2F51D5"/>
<path d="M128.966 54.3738C128.469 55.041 127.582 55.3933 126.629 55.3933C124.724 55.3933 123.444 54.1645 123.444 52.3059C123.444 50.5923 124.697 49.2185 126.486 49.2185C127.452 49.2185 128.3 49.4672 128.85 50.0163L128.145 51.2056C127.7 50.7746 127.218 50.6296 126.683 50.6296C125.847 50.6296 125.051 51.2699 125.051 52.3038C125.051 53.3502 125.859 53.9905 126.747 53.9905C127.386 53.9905 127.882 53.69 128.261 53.2715L128.966 54.3738Z" fill="#2F51D5"/>
<path d="M129.437 49.3655H134.789V50.8698H132.87V55.2502H131.368V50.8698H129.437V49.3655Z" fill="#2F51D5"/>
<path d="M135.857 49.3656C136.366 49.3532 137.253 49.2993 138.167 49.2993C139.877 49.2993 140.831 49.7697 140.831 50.843C140.831 51.5496 140.322 52.0593 139.735 52.1505V52.1774C140.558 52.3743 140.988 52.8571 140.988 53.5388C140.988 54.7033 140.086 55.3166 138.194 55.3166C137.462 55.3166 136.393 55.2524 135.857 55.2524V49.3656ZM137.358 50.5426V51.8376H138.337C138.833 51.8376 139.238 51.6159 139.238 51.158C139.238 50.727 138.86 50.5177 138.297 50.5177C137.946 50.5156 137.516 50.5301 137.358 50.5426ZM137.358 52.7535V54.0609C137.58 54.0734 137.985 54.1127 138.351 54.1127C139.017 54.1127 139.408 53.8392 139.408 53.4331C139.408 52.9876 139.005 52.7535 138.299 52.7535H137.358Z" fill="#2F51D5"/>
<path d="M147.45 54.6617C146.863 55.159 146.027 55.3952 145.204 55.3952C143.312 55.3952 142.044 54.1665 142.044 52.3078C142.044 50.5942 143.219 49.2205 145.15 49.2205C146.664 49.2205 147.93 50.3062 147.93 51.9535C147.93 52.3203 147.905 52.542 147.839 52.7637H143.597C143.727 53.6526 144.433 54.1375 145.359 54.1375C146.077 54.1375 146.677 53.8764 147.016 53.6008L147.45 54.6617ZM143.545 51.7587H146.43C146.443 51.0397 145.946 50.4761 145.086 50.4761C144.187 50.4761 143.703 50.9879 143.545 51.7587Z" fill="#2F51D5"/>
<path d="M153.219 53.0018H150.648V55.2521H149.147V49.3674H150.648V51.5908H153.219V49.3674H154.721V55.2521H153.219V53.0018Z" fill="#2F51D5"/>
<path d="M160.463 53.0018H157.893V55.2521H156.391V49.3674H157.893V51.5908H160.463V49.3674H161.965V55.2521H160.463V53.0018Z" fill="#2F51D5"/>
<path d="M163.636 49.3655H165.138V50.9734H165.868C167.866 50.9734 168.453 51.968 168.453 53.0144C168.453 54.1395 167.748 55.2502 165.752 55.2502H163.636V49.3655ZM165.138 52.1773V53.9427H165.725C166.534 53.9427 166.86 53.6029 166.86 53.0662C166.86 52.5295 166.548 52.1773 165.737 52.1773H165.138ZM169.288 49.3655H170.79V55.2502H169.288V49.3655Z" fill="#2F51D5"/>
<path d="M172.46 55.2506V49.3659H173.962V53.0936L176.702 49.3659H178.204V55.2506H176.702V51.5229L173.962 55.2506H172.46ZM174.706 46.4236C174.706 46.9064 174.888 47.3788 175.385 47.3788C175.829 47.3788 176.011 46.9084 176.011 46.4236H177.383C177.383 47.5487 176.704 48.4501 175.385 48.4501C173.923 48.4501 173.335 47.5612 173.335 46.4236H174.706Z" fill="#2F51D5"/>
<path d="M82.2712 68.4084C81.4088 70.5136 80.8607 71.0233 80.0004 71.0233C79.4647 71.0233 79.0739 70.814 78.7347 70.5654L79.2186 69.4278C79.3758 69.519 79.5971 69.6371 79.8329 69.6371C80.2113 69.6371 80.4864 69.3367 80.7346 68.7212L80.8649 68.4084L78.1494 62.5237H79.9507L81.3219 65.7416C81.4398 66.0296 81.5184 66.3031 81.6094 66.5912C81.6611 66.3176 81.7128 66.0296 81.8183 65.7292L82.8751 62.5258H84.5854L82.2712 68.4084Z" fill="#2F51D5"/>
<path d="M89.5541 66.1581H86.9834V68.4084H85.4819V62.5237H86.9834V64.747H89.5541V62.5237H91.0555V68.4084H89.5541V66.1581Z" fill="#2F51D5"/>
<path d="M92.7271 68.4084V62.5237H94.2285V66.2513L96.9688 62.5237H98.4702V68.4084H96.9688V64.6807L94.2285 68.4084H92.7271Z" fill="#2F51D5"/>
<path d="M100.141 62.5219C100.65 62.5094 101.537 62.4556 102.451 62.4556C104.162 62.4556 105.115 62.9259 105.115 63.9993C105.115 64.7058 104.606 65.2156 104.019 65.3067V65.3337C104.842 65.5305 105.272 66.0133 105.272 66.695C105.272 67.8595 104.37 68.4729 102.478 68.4729C101.746 68.4729 100.677 68.4086 100.141 68.4086V62.5219ZM101.645 63.6988V64.9939H102.623C103.119 64.9939 103.525 64.7721 103.525 64.3142C103.525 63.8832 103.146 63.6739 102.584 63.6739C102.23 63.6739 101.8 63.6864 101.645 63.6988ZM101.645 65.9097V67.2172C101.866 67.2296 102.271 67.269 102.637 67.269C103.303 67.269 103.694 66.9955 103.694 66.5893C103.694 66.1439 103.291 65.9097 102.586 65.9097H101.645Z" fill="#2F51D5"/>
<path d="M111.734 67.8202C111.146 68.3175 110.311 68.5537 109.488 68.5537C107.595 68.5537 106.328 67.3249 106.328 65.4663C106.328 63.7527 107.502 62.3789 109.434 62.3789C110.948 62.3789 112.214 63.4647 112.214 65.112C112.214 65.4787 112.189 65.7004 112.123 65.9221H107.881C108.011 66.8111 108.716 67.2959 109.643 67.2959C110.36 67.2959 110.96 67.0349 111.299 66.7593L111.734 67.8202ZM107.831 64.9151H110.716C110.729 64.1961 110.232 63.6325 109.372 63.6325C108.47 63.6346 107.986 64.1443 107.831 64.9151Z" fill="#2F51D5"/>
<path d="M113.431 62.5218H114.932V63.0833C115.298 62.6917 115.989 62.3767 116.746 62.3767C118.365 62.3767 119.41 63.6324 119.41 65.3709C119.41 67.1632 118.183 68.5494 116.303 68.5494C115.78 68.5494 115.271 68.4582 114.932 68.2614V71.0214H113.431V62.5218ZM114.932 64.4322V66.813C115.335 67.0741 115.677 67.1528 116.171 67.1528C117.215 67.1528 117.817 66.3945 117.817 65.4144C117.817 64.4716 117.269 63.7919 116.276 63.7919C115.768 63.7919 115.298 64.0261 114.932 64.4322Z" fill="#2F51D5"/>
<path d="M125.872 67.532C125.376 68.1992 124.488 68.5515 123.535 68.5515C121.63 68.5515 120.35 67.3227 120.35 65.4641C120.35 63.7505 121.603 62.3767 123.392 62.3767C124.358 62.3767 125.206 62.6254 125.756 63.1745L125.051 64.3638C124.606 63.9328 124.124 63.7878 123.589 63.7878C122.753 63.7878 121.957 64.4281 121.957 65.462C121.957 66.5084 122.766 67.1487 123.653 67.1487C124.292 67.1487 124.788 66.8482 125.167 66.4297L125.872 67.532Z" fill="#2F51D5"/>
<path d="M127.073 68.4084V62.5237H128.574V66.2513L131.314 62.5237H132.816V68.4084H131.314V64.6807L128.574 68.4084H127.073Z" fill="#2F51D5"/>
<path d="M133.874 62.5217H139.226V64.026H137.307V68.4064H135.806V64.026H133.874V62.5217Z" fill="#2F51D5"/>
<path d="M145.15 67.8202C144.563 68.3175 143.727 68.5537 142.904 68.5537C141.012 68.5537 139.744 67.3249 139.744 65.4663C139.744 63.7527 140.919 62.3789 142.85 62.3789C144.364 62.3789 145.63 63.4647 145.63 65.112C145.63 65.4787 145.605 65.7004 145.539 65.9221H141.297C141.428 66.8111 142.133 67.2959 143.059 67.2959C143.777 67.2959 144.377 67.0349 144.716 66.7593L145.15 67.8202ZM141.248 64.9151H144.133C144.145 64.1961 143.649 63.6325 142.788 63.6325C141.887 63.6346 141.405 64.1443 141.248 64.9151Z" fill="#2F51D5"/>
<path d="M146.183 62.5217H151.535V64.026H149.616V68.4064H148.115V64.026H146.183V62.5217Z" fill="#2F51D5"/>
<path d="M82.5617 14.512H79.7325V16.8472H79.1079V11.6919H79.7325V13.9235H82.5617V11.6919H83.1862V16.8472H82.5617V14.512Z" fill="#2F51D5"/>
<path d="M84.5055 13.7596C84.7991 13.5751 85.1962 13.457 85.6078 13.457C86.5488 13.457 86.8797 13.9502 86.8797 14.8122V16.8449H86.3213V16.418C86.1227 16.6687 85.8063 16.8967 85.2624 16.8967C84.6606 16.8967 84.249 16.5133 84.249 15.8731C84.249 15.1955 84.7847 14.8205 85.4982 14.8205C85.7546 14.8205 86.1 14.8723 86.3213 15.0339C86.3213 14.4143 86.2261 13.9875 85.5706 13.9875C85.1673 13.9875 84.9232 14.0911 84.6585 14.2299L84.5055 13.7596ZM86.3213 15.9394V15.5187C86.1145 15.3716 85.8663 15.297 85.5788 15.297C85.2272 15.297 84.8736 15.4587 84.8736 15.842C84.8736 16.159 85.0866 16.3641 85.4692 16.3641C85.9015 16.3662 86.1517 16.1383 86.3213 15.9394Z" fill="#2F51D5"/>
<path d="M87.8613 13.5317H88.4487V16.2938H90.2128V13.5317H90.8001V16.2938H91.3523V17.6552H90.8001V16.845H87.8613V13.5317Z" fill="#2F51D5"/>
<path d="M91.9893 16.8449V13.5316H92.5766V15.9974L94.4876 13.5295H95.0749V16.8428H94.4876V14.3791L92.5766 16.8469H91.9893V16.8449Z" fill="#2F51D5"/>
<path d="M97.6792 13.459C98.738 13.459 99.4433 14.1946 99.4433 15.1892C99.4433 16.1838 98.738 16.9193 97.6792 16.9193C96.6203 16.9193 95.915 16.1838 95.915 15.1892C95.9171 14.1946 96.6223 13.459 97.6792 13.459ZM97.6792 16.3661C98.341 16.3661 98.8187 15.8957 98.8187 15.1871C98.8187 14.495 98.341 14.0081 97.6792 14.0081C97.0318 14.0081 96.5396 14.4867 96.5396 15.1871C96.5417 15.8812 97.0194 16.3661 97.6792 16.3661Z" fill="#2F51D5"/>
<path d="M102.711 15.4463H100.874V16.845H100.287V13.5317H100.874V14.8952H102.711V13.5317H103.298V16.845H102.711V15.4463Z" fill="#2F51D5"/>
<path d="M104.386 13.7596C104.68 13.5751 105.077 13.457 105.488 13.457C106.429 13.457 106.76 13.9502 106.76 14.8122V16.8449H106.202V16.418C106.003 16.6687 105.687 16.8967 105.143 16.8967C104.539 16.8967 104.129 16.5133 104.129 15.8731C104.129 15.1955 104.665 14.8205 105.379 14.8205C105.635 14.8205 105.98 14.8723 106.202 15.0339C106.202 14.4143 106.107 13.9875 105.451 13.9875C105.048 13.9875 104.804 14.0911 104.539 14.2299L104.386 13.7596ZM106.2 15.9394V15.5187C105.993 15.3716 105.745 15.297 105.457 15.297C105.103 15.297 104.752 15.4587 104.752 15.842C104.752 16.159 104.965 16.3641 105.348 16.3641C105.782 16.3662 106.03 16.1383 106.2 15.9394Z" fill="#2F51D5"/>
<path d="M110.004 14.1201H108.844L108.807 14.6795C108.66 16.5651 108.16 16.8884 107.477 16.8884L107.434 16.3144C107.684 16.3372 108.153 16.0927 108.234 14.5614L108.292 13.5295H110.592V16.8428H110.002V14.1201H110.004Z" fill="#2F51D5"/>
<path d="M111.648 13.5317H112.235V14.5263H112.837C113.85 14.5263 114.146 15.0775 114.146 15.668C114.146 16.2503 113.809 16.8471 112.765 16.8471H111.648V13.5317ZM112.235 15.0775V16.2917H112.721C113.302 16.2917 113.522 16.0783 113.522 15.6888C113.522 15.2909 113.294 15.0775 112.728 15.0775H112.235Z" fill="#2F51D5"/>
<path d="M117.356 15.4463H115.518V16.845H114.93V13.5317H115.518V14.8952H117.356V13.5317H117.943V16.845H117.356V15.4463Z" fill="#2F51D5"/>
<path d="M119.005 13.5317H119.593V14.5263H120.137C121.15 14.5263 121.446 15.0775 121.446 15.668C121.446 16.2503 121.109 16.8471 120.07 16.8471H119.005V13.5317ZM119.593 15.0775V16.2917H120.019C120.606 16.2917 120.819 16.0783 120.819 15.6888C120.819 15.2909 120.592 15.0775 120.025 15.0775H119.593ZM122.077 13.5317H122.666V16.845H122.077V13.5317Z" fill="#2F51D5"/>
<path d="M123.72 16.845V13.5317H124.307V15.9975L126.218 13.5297H126.805V16.8429H126.218V14.3792L124.307 16.8471H123.72V16.845ZM124.741 11.8389C124.77 12.2367 124.954 12.4211 125.306 12.4211C125.631 12.4211 125.813 12.2367 125.844 11.8389H126.394C126.394 12.4211 125.968 12.8687 125.306 12.8687C124.578 12.8687 124.189 12.419 124.189 11.8389H124.741Z" fill="#2F51D5"/>
<path d="M78.8643 25.6753V22.3621H79.4516V24.8299L81.3626 22.3621H81.9499V25.6753H81.3626V23.2075L79.4516 25.6753H78.8643Z" fill="#2F51D5"/>
<path d="M85.8377 25.1962C85.5585 25.5567 85.0725 25.7494 84.5658 25.7494C83.5152 25.7494 82.7935 25.0636 82.7935 24.0192C82.7935 23.0557 83.4987 22.2891 84.4686 22.2891C84.9981 22.2891 85.4613 22.4134 85.7695 22.7242L85.4986 23.1863C85.2194 22.9293 84.8967 22.8402 84.5514 22.8402C83.9557 22.8402 83.4201 23.3189 83.4201 24.0192C83.4201 24.7486 83.9557 25.1983 84.6113 25.1983C85.0084 25.1983 85.3393 25.0221 85.5585 24.7714L85.8377 25.1962Z" fill="#2F51D5"/>
<path d="M89.2513 25.1962C88.9721 25.5567 88.4861 25.7494 87.9794 25.7494C86.9288 25.7494 86.207 25.0636 86.207 24.0192C86.207 23.0557 86.9123 22.2891 87.8822 22.2891C88.4116 22.2891 88.8749 22.4134 89.1831 22.7242L88.9101 23.1883C88.6309 22.9314 88.3083 22.8423 87.9629 22.8423C87.3673 22.8423 86.8316 23.321 86.8316 24.0213C86.8316 24.7507 87.3673 25.2003 88.0228 25.2003C88.4199 25.2003 88.7508 25.0242 88.97 24.7735L89.2513 25.1962Z" fill="#2F51D5"/>
<path d="M92.2162 22.9502H91.056L91.0187 23.5096C90.8719 25.3952 90.3714 25.7184 89.6889 25.7184L89.6455 25.1445C89.8958 25.1673 90.3652 24.9228 90.4459 23.3915L90.5038 22.3596H92.8035V25.6729H92.2141V22.9502H92.2162Z" fill="#2F51D5"/>
<path d="M96.6545 25.3143C96.3298 25.6085 95.852 25.7494 95.4115 25.7494C94.3382 25.7494 93.6392 25.0636 93.6392 24.0192C93.6392 23.0557 94.2575 22.2891 95.3454 22.2891C96.1974 22.2891 96.882 22.892 96.882 23.8058C96.882 23.9674 96.8675 24.1001 96.8447 24.2037H94.301C94.3527 24.8294 94.8076 25.1983 95.455 25.1983C95.881 25.1983 96.2553 25.0511 96.4683 24.8522L96.6545 25.3143ZM94.2658 23.7229H96.2719C96.2429 23.178 95.8893 22.8402 95.3164 22.8402C94.7125 22.8402 94.332 23.2153 94.2658 23.7229Z" fill="#2F51D5"/>
<path d="M97.0986 25.1217H97.5102C97.7294 24.842 97.959 24.1416 98.0169 23.2361L98.0686 22.3596H100.325V25.1217H100.877V26.4851H100.325V25.6749H97.6508V26.4851H97.0986V25.1217ZM98.1348 25.1217H99.7376V22.9129H98.6208L98.5835 23.4661C98.5091 24.3115 98.2899 24.9166 98.1348 25.1217Z" fill="#2F51D5"/>
<path d="M103.057 22.2871C104.115 22.2871 104.821 23.0227 104.821 24.0173C104.821 25.0119 104.115 25.7475 103.057 25.7475C101.998 25.7475 101.292 25.0119 101.292 24.0173C101.292 23.0248 101.998 22.2871 103.057 22.2871ZM103.057 25.1963C103.718 25.1963 104.196 24.7259 104.196 24.0173C104.196 23.3252 103.718 22.8383 103.057 22.8383C102.409 22.8383 101.917 23.3169 101.917 24.0173C101.917 24.7094 102.395 25.1963 103.057 25.1963Z" fill="#2F51D5"/>
<path d="M105.662 22.3618C105.95 22.3618 106.382 22.3328 106.86 22.3328C107.786 22.3328 108.284 22.5897 108.284 23.1865C108.284 23.576 108.02 23.8868 107.623 23.9448V23.9593C108.152 24.0547 108.394 24.3282 108.394 24.7405C108.394 25.3663 107.902 25.704 106.874 25.704C106.462 25.704 105.964 25.675 105.662 25.675V22.3618ZM106.249 22.8321V23.8184H106.992C107.383 23.8184 107.66 23.6278 107.66 23.3025C107.66 22.942 107.329 22.8093 106.903 22.8093C106.64 22.8093 106.398 22.8259 106.249 22.8321ZM106.249 24.1873V25.2026C106.427 25.2109 106.661 25.2254 106.926 25.2254C107.47 25.2254 107.772 25.041 107.772 24.6949C107.772 24.3489 107.484 24.1873 106.955 24.1873H106.249Z" fill="#2F51D5"/>
<path d="M109.312 22.5896C109.605 22.4052 110.002 22.2871 110.414 22.2871C111.355 22.2871 111.686 22.7803 111.686 23.6422V25.6749H111.127V25.2481C110.929 25.4988 110.612 25.7267 110.069 25.7267C109.465 25.7267 109.055 25.3434 109.055 24.7031C109.055 24.0256 109.591 23.6505 110.304 23.6505C110.561 23.6505 110.906 23.7023 111.127 23.864C111.127 23.2444 111.032 22.8176 110.377 22.8176C109.973 22.8176 109.729 22.9212 109.465 23.06L109.312 22.5896ZM111.127 24.7695V24.3488C110.921 24.2017 110.672 24.1271 110.385 24.1271C110.031 24.1271 109.68 24.2887 109.68 24.6721C109.68 24.9891 109.893 25.1942 110.275 25.1942C110.708 25.1963 110.958 24.9684 111.127 24.7695Z" fill="#2F51D5"/>
<path d="M112.25 22.3616H115.263V22.95H114.051V25.6748H113.462V22.95H112.25V22.3616Z" fill="#2F51D5"/>
<path d="M118.582 25.3143C118.257 25.6085 117.779 25.7494 117.339 25.7494C116.265 25.7494 115.566 25.0636 115.566 24.0192C115.566 23.0557 116.185 22.2891 117.273 22.2891C118.125 22.2891 118.809 22.892 118.809 23.8058C118.809 23.9674 118.795 24.1001 118.772 24.2037H116.228C116.28 24.8294 116.735 25.1983 117.382 25.1983C117.808 25.1983 118.183 25.0511 118.396 24.8522L118.582 25.3143ZM116.193 23.7229H118.199C118.17 23.178 117.817 22.8402 117.244 22.8402C116.642 22.8402 116.259 23.2153 116.193 23.7229Z" fill="#2F51D5"/>
<path d="M121.745 22.9502H120.585L120.548 23.5096C120.401 25.3952 119.901 25.7184 119.218 25.7184L119.175 25.1445C119.425 25.1673 119.895 24.9228 119.975 23.3915L120.033 22.3596H122.333V25.6729H121.743V22.9502H121.745Z" fill="#2F51D5"/>
<path d="M123.389 22.3616H123.977V23.3562H124.578C125.592 23.3562 125.887 23.9094 125.887 24.4979C125.887 25.0801 125.55 25.6769 124.506 25.6769H123.389V22.3616ZM123.977 23.9073V25.1216H124.463C125.044 25.1216 125.263 24.9081 125.263 24.5186C125.263 24.1208 125.035 23.9073 124.469 23.9073H123.977Z" fill="#2F51D5"/>
<path d="M129.457 25.1962C129.178 25.5567 128.694 25.7494 128.185 25.7494C127.134 25.7494 126.413 25.0636 126.413 24.0192C126.413 23.0557 127.118 22.2891 128.088 22.2891C128.617 22.2891 129.08 22.4134 129.389 22.7242L129.118 23.1883C128.839 22.9314 128.516 22.8423 128.171 22.8423C127.575 22.8423 127.039 23.321 127.039 24.0213C127.039 24.7507 127.575 25.2003 128.23 25.2003C128.628 25.2003 128.958 25.0242 129.178 24.7735L129.457 25.1962Z" fill="#2F51D5"/>
<path d="M130.22 22.3616H130.807V25.6748H130.22V22.3616ZM131.667 23.9446L133.254 25.6748H132.439L130.948 23.9819L132.344 22.3616H133.115L131.667 23.9446Z" fill="#2F51D5"/>
<path d="M133.875 25.6748V22.3616H134.463V24.8294L136.374 22.3616H136.961V25.6748H136.374V23.207L134.463 25.6748H133.875Z" fill="#2F51D5"/>
<path d="M138.025 25.6752V22.3619H138.613V24.8298L140.524 22.3619H141.111V25.6752H140.524V23.2074L138.613 25.6752H138.025ZM139.047 20.667C139.076 21.0648 139.26 21.2492 139.612 21.2492C139.936 21.2492 140.118 21.0648 140.149 20.667H140.699C140.699 21.2492 140.273 21.6968 139.612 21.6968C138.884 21.6968 138.495 21.2472 138.495 20.667H139.047Z" fill="#2F51D5"/>
<path d="M18.7992 58.6638L21.0493 60.9493L20.4599 61.5316L19.645 60.7048L17.4818 62.8432L16.8613 62.2112L19.0246 60.0749L18.2097 59.2461L18.7992 58.6638Z" fill="#2F51D5"/>
<path d="M23.289 62.4927C24.2714 63.1412 24.5836 64.2684 23.9074 65.3003C23.2642 66.2804 22.075 66.4918 21.0906 65.8432C20.1062 65.1947 19.7939 64.0675 20.4722 63.0356C21.0864 62.0948 22.2591 61.8151 23.289 62.4927ZM21.5456 65.1491C22.1598 65.5531 22.7637 65.3273 23.1215 64.7823C23.5103 64.1897 23.3552 63.5308 22.8319 63.1868C22.2963 62.8346 21.6448 62.961 21.256 63.5536C20.892 64.1089 21.0285 64.8072 21.5456 65.1491Z" fill="#2F51D5"/>
<path d="M25.8013 64.0754L26.643 64.3614L27.249 66.2926L28.8393 65.1115L29.6294 65.3808L28.3823 69.0505L27.5468 68.7625L28.3409 66.4272L26.8353 67.5089L26.7133 67.4674L26.1797 65.7062L25.3897 68.0269L24.5542 67.743L25.8013 64.0754Z" fill="#2F51D5"/>
<path d="M30.6828 66.6009C30.7573 66.0083 31.295 65.5504 32.0623 65.6499C32.5566 65.712 32.9309 65.9275 33.1398 66.2155L32.5834 66.8144C32.4345 66.6341 32.3208 66.5181 32.0354 66.4828C31.7934 66.4517 31.6383 66.5429 31.6156 66.719C31.5349 67.3572 33.1542 67.407 32.9971 68.6585C32.9123 69.3278 32.2774 69.7153 31.537 69.622C31.022 69.5578 30.4512 69.2615 30.3188 68.8243L30.8938 68.2897C31.0758 68.5984 31.3943 68.7662 31.6631 68.8015C31.8948 68.8305 32.0395 68.731 32.0623 68.5508C32.1347 67.9747 30.5257 67.8421 30.6828 66.6009Z" fill="#2F51D5"/>
<path d="M34.5273 65.938L35.4104 65.9194L35.4497 67.606L36.6761 65.8903L37.7371 65.8655L36.3245 67.6868L37.9418 69.7361L36.8188 69.763L35.4559 67.95L35.4994 69.7941L34.6142 69.8148L34.5273 65.938Z" fill="#2F51D5"/>
<path d="M38.8652 67.4257L40.3067 67.1978L40.4287 67.9623L38.9873 68.1923L38.8652 67.4257Z" fill="#2F51D5"/>
<path d="M41.864 65.0553L42.4368 64.8916L43.4916 68.6172L42.6953 68.8451L41.9612 66.2509L41.6633 66.6176L41.0615 66.0768L41.864 65.0553Z" fill="#2F51D5"/>
<path d="M44.8217 67.1257C44.6004 66.6553 44.7121 66.2471 44.9396 65.9881L44.9334 65.9736C44.6438 65.957 44.2985 65.7892 44.0937 65.3541C43.8352 64.8029 44.1785 64.1833 44.8341 63.8746C45.4876 63.5659 46.1908 63.6964 46.4493 64.2455C46.6086 64.5853 46.5796 65.0039 46.3376 65.3064L46.3438 65.3209C46.6872 65.2567 47.1008 65.4162 47.3159 65.8721C47.6261 66.5331 47.2704 67.1526 46.5403 67.4966C45.8103 67.8405 45.1009 67.7224 44.8217 67.1257ZM45.5228 65.2401C45.7586 65.1282 45.7834 64.9086 45.711 64.7552C45.6179 64.5604 45.4359 64.5045 45.1795 64.6268C44.9189 64.749 44.8775 64.9479 44.9561 65.1116C45.0285 65.267 45.2146 65.3872 45.4587 65.2712L45.5228 65.2401ZM45.8165 66.0213C45.591 66.1269 45.4318 66.3486 45.5497 66.5994C45.6407 66.7941 45.8516 66.904 46.1805 66.7486C46.561 66.5704 46.5672 66.3528 46.4741 66.1642C46.3521 65.9156 46.1163 65.8804 45.8764 65.9943L45.8165 66.0213Z" fill="#2F51D5"/>
<path d="M46.7979 62.9216L48.8598 61.4297L49.1907 61.8876L50.0634 65.3397L49.3292 65.8722L48.5433 62.6833L47.2839 63.595L46.7979 62.9216Z" fill="#2F51D5"/>
<path d="M51.5767 62.8764C51.2023 62.5138 51.163 62.0932 51.283 61.77L51.2706 61.7596C50.9955 61.8466 50.6108 61.8135 50.2655 61.4799C49.827 61.0572 49.9284 60.3547 50.4309 59.8326C50.9335 59.3104 51.6346 59.1819 52.073 59.6046C52.3439 59.8657 52.4639 60.2677 52.346 60.6386L52.3584 60.649C52.6562 60.4666 53.1029 60.4666 53.4628 60.8168C53.9881 61.3245 53.8743 62.031 53.3139 62.6133C52.7534 63.1914 52.0482 63.3344 51.5767 62.8764ZM51.5643 60.8645C51.7442 60.6759 51.6904 60.4625 51.5663 60.3444C51.4112 60.1931 51.2189 60.2076 51.0245 60.4127C50.8259 60.62 50.857 60.8189 50.9872 60.9453C51.1093 61.0654 51.3264 61.111 51.5146 60.9163L51.5643 60.8645ZM52.1144 61.4882C51.9407 61.6663 51.8724 61.9316 52.0709 62.1222C52.2261 62.2714 52.4598 62.2983 52.7141 62.0372C53.0057 61.7347 52.9354 61.5275 52.7803 61.3866C52.5776 61.1981 52.3439 61.2478 52.1599 61.4405L52.1144 61.4882Z" fill="#2F51D5"/>
</g>
<defs>
<clipPath id="clip0_237_48">
<rect width="177.404" height="79" fill="white" transform="translate(0.79834 0.5)"/>
</clipPath>
</defs>
</svg>
