<svg width="50" height="50" viewBox="0 0 50 50" fill="none" xmlns="http://www.w3.org/2000/svg">
<circle cx="25" cy="25" r="25" fill="#3052D8"/>
<path fill-rule="evenodd" clip-rule="evenodd" d="M24.0227 15.25C19.73 15.25 16.25 18.73 16.25 23.0227C16.25 27.3155 19.73 30.7955 24.0227 30.7955C28.3155 30.7955 31.7955 27.3155 31.7955 23.0227C31.7955 18.73 28.3155 15.25 24.0227 15.25ZM14 23.0227C14 17.4873 18.4873 13 24.0227 13C29.5581 13 34.0455 17.4873 34.0455 23.0227C34.0455 25.3851 33.2281 27.5566 31.8608 29.2699L37.6705 35.0795C38.1098 35.5188 38.1098 36.2311 37.6705 36.6705C37.2311 37.1098 36.5188 37.1098 36.0795 36.6705L30.2699 30.8608C28.5566 32.2281 26.3851 33.0455 24.0227 33.0455C18.4873 33.0455 14 28.5581 14 23.0227Z" fill="white"/>
</svg>
