<svg width="50" height="50" viewBox="0 0 50 50" fill="none" xmlns="http://www.w3.org/2000/svg">
<circle cx="25" cy="25" r="25" fill="#3052D8"/>
<path fill-rule="evenodd" clip-rule="evenodd" d="M23.3684 14.9476C24.2382 15.0759 25.0539 15.37 25.7824 15.7969C26.3122 15.451 26.9451 15.25 27.625 15.25H28.375C30.239 15.25 31.75 16.761 31.75 18.625V19.375C31.75 20.9834 30.6249 22.329 29.1188 22.6678C29.071 23.7874 28.7505 24.8364 28.222 25.75H29C32.1756 25.75 34.75 28.3244 34.75 31.5C34.75 31.6381 34.6381 31.75 34.5 31.75H31.7033C31.9293 32.4659 32.0694 33.2199 32.1115 34H34.5C35.8807 34 37 32.8807 37 31.5C37 28.0103 34.7656 25.0425 31.6495 23.9492C33.0728 22.9285 34 21.26 34 19.375V18.625C34 15.5184 31.4816 13 28.375 13H27.625C25.9243 13 24.3999 13.7548 23.3684 14.9476ZM21.625 16C18.5184 16 16 18.5184 16 21.625V22.375C16 24.26 16.9272 25.9285 18.3505 26.9492C15.2344 28.0425 13 31.0103 13 34.5C13 35.8807 14.1193 37 15.5 37H28.5C29.8807 37 31 35.8807 31 34.5C31 31.0103 28.7656 28.0425 25.6495 26.9492C27.0728 25.9285 28 24.26 28 22.375V21.625C28 18.5184 25.4816 16 22.375 16H21.625ZM18.25 21.625C18.25 19.761 19.761 18.25 21.625 18.25H22.375C24.239 18.25 25.75 19.761 25.75 21.625V22.375C25.75 24.239 24.239 25.75 22.375 25.75H21.625C19.761 25.75 18.25 24.239 18.25 22.375V21.625ZM15.25 34.5C15.25 31.3244 17.8244 28.75 21 28.75H23C26.1756 28.75 28.75 31.3244 28.75 34.5C28.75 34.6381 28.6381 34.75 28.5 34.75H15.5C15.3619 34.75 15.25 34.6381 15.25 34.5Z" fill="white"/>
</svg>
