<svg width="50" height="50" viewBox="0 0 50 50" fill="none" xmlns="http://www.w3.org/2000/svg">
<circle cx="25" cy="25" r="25" fill="#3052D8"/>
<path fill-rule="evenodd" clip-rule="evenodd" d="M25.4887 14.0493C25.1798 13.9002 24.8198 13.9002 24.5109 14.0493L12.1351 20.0207C11.7462 20.2084 11.499 20.6021 11.499 21.0339C11.499 21.4658 11.7462 21.8595 12.1351 22.0471L16.7498 24.2738V27.9742C15.2284 28.4521 14.1248 29.8734 14.1248 31.5525V34.1618C14.1248 34.5908 14.3689 34.9825 14.7539 35.1716L15.3953 35.4866C16.9591 36.2546 18.7906 36.2546 20.3544 35.4866L20.9958 35.1716C21.3808 34.9825 21.6248 34.5908 21.6248 34.1618V31.5525C21.6248 29.8734 20.5213 28.4521 18.9998 27.9742V25.3594L24.5109 28.0186C24.8198 28.1676 25.1798 28.1676 25.4887 28.0186L30.8989 25.4081V30.1811L29.9728 30.9221C27.9787 32.5176 25.4699 33.0316 23.1441 32.4642V34.6585C23.1441 34.694 23.1433 34.7294 23.1416 34.7647C25.9762 35.2964 28.9761 34.6012 31.3785 32.6789L32.7267 31.6002C32.9936 31.3867 33.1489 31.0635 33.1489 30.7218V24.3224L37.8645 22.0471C38.2534 21.8595 38.5006 21.4658 38.5006 21.0339C38.5006 20.6021 38.2534 20.2084 37.8645 20.0207L25.4887 14.0493ZM18.4646 22.6029L15.2128 21.0339L24.9998 16.3116L34.7868 21.0339L31.535 22.6029L24.9998 25.7562L18.4646 22.6029ZM16.3748 31.5525C16.3748 30.7241 17.0464 30.0525 17.8748 30.0525C18.7033 30.0525 19.3748 30.7241 19.3748 31.5525V33.461L19.3626 33.467C18.4243 33.9278 17.3254 33.9278 16.3871 33.467L16.3748 33.461V31.5525Z" fill="white"/>
</svg>
