<svg width="50" height="50" viewBox="0 0 50 50" fill="none" xmlns="http://www.w3.org/2000/svg">
<circle cx="25" cy="25" r="25" fill="#3052D8"/>
<path fill-rule="evenodd" clip-rule="evenodd" d="M25.1274 15.2714C25.0444 15.241 24.9533 15.2409 24.8702 15.2712L16.9967 18.1376C16.8486 18.1916 16.75 18.3324 16.75 18.49V25.006C16.75 28.5015 18.6947 31.7067 21.795 33.3212L24.134 34.5392C24.6767 34.8218 25.3233 34.8218 25.866 34.5392L28.2051 33.3212C31.3053 31.7067 33.25 28.5015 33.25 25.006L33.25 18.5083C33.25 18.3509 33.1517 18.2103 33.004 18.1562L25.1274 15.2714ZM24.1004 13.1569C24.6821 12.9451 25.32 12.9458 25.9012 13.1587L33.7778 16.0434C34.8122 16.4223 35.5 17.4067 35.5 18.5083L35.5 25.006C35.5 29.3404 33.0886 33.3149 29.2443 35.3168L26.9052 36.5348C25.7112 37.1566 24.2888 37.1566 23.0948 36.5348L20.7557 35.3168C16.9114 33.3149 14.5 29.3404 14.5 25.006V18.49C14.5 17.3865 15.1901 16.4009 16.227 16.0234L24.1004 13.1569ZM20.8295 20.9721C21.2688 20.5328 21.9812 20.5328 22.4205 20.9721L25 23.5516L27.5795 20.9721C28.0188 20.5328 28.7312 20.5328 29.1705 20.9721C29.6098 21.4115 29.6098 22.1238 29.1705 22.5631L26.591 25.1426L29.1705 27.7221C29.6098 28.1615 29.6098 28.8738 29.1705 29.3131C28.7312 29.7524 28.0188 29.7524 27.5795 29.3131L25 26.7336L22.4205 29.3131C21.9812 29.7524 21.2688 29.7524 20.8295 29.3131C20.3902 28.8738 20.3902 28.1615 20.8295 27.7221L23.409 25.1426L20.8295 22.5631C20.3902 22.1238 20.3902 21.4115 20.8295 20.9721Z" fill="white"/>
</svg>
