<svg width="94" height="37" viewBox="0 0 94 37" fill="none" xmlns="http://www.w3.org/2000/svg">
<g clip-path="url(#clip0_5_134)">
<path d="M40.2719 18.832C40.2719 16.272 41.0879 14.16 42.7199 12.496C44.3679 10.832 46.5439 10 49.2479 10C51.9519 10 54.1199 10.832 55.7519 12.496C57.3999 14.16 58.2239 16.272 58.2239 18.832C58.2559 21.376 57.4479 23.472 55.7999 25.12C54.1519 26.768 51.9679 27.584 49.2479 27.568C46.5279 27.584 44.3439 26.768 42.6959 25.12C41.0479 23.472 40.2399 21.376 40.2719 18.832ZM54.4079 18.808C54.4079 17.096 53.9439 15.704 53.0159 14.632C52.0879 13.56 50.8399 13.024 49.2719 13.024C47.6719 13.024 46.4079 13.56 45.4799 14.632C44.5519 15.704 44.0879 17.096 44.0879 18.808C44.0879 20.504 44.5519 21.888 45.4799 22.96C46.4079 24.016 47.6719 24.544 49.2719 24.544C50.8399 24.544 52.0879 24.016 53.0159 22.96C53.9439 21.888 54.4079 20.504 54.4079 18.808Z" fill="#121212"/>
<path d="M60.6487 25.792C59.7367 24.608 59.2807 23.072 59.2807 21.184C59.2807 19.296 59.7367 17.768 60.6487 16.6C61.5767 15.416 62.7687 14.824 64.2247 14.824C66.0807 14.824 67.4087 15.768 68.2087 17.656H69.6487C69.3607 17.176 69.1367 16.776 68.9767 16.456C68.8327 16.136 68.6967 15.656 68.5687 15.016C68.4407 14.376 68.3767 13.616 68.3767 12.736V10.384H71.7847V27.184H68.6887C68.6887 26.544 69.0327 25.728 69.7207 24.736H68.2807C67.8487 25.648 67.3367 26.344 66.7447 26.824C66.1687 27.288 65.3287 27.536 64.2247 27.568C62.7687 27.568 61.5767 26.976 60.6487 25.792ZM68.5207 21.184C68.5207 19.952 68.2647 19.016 67.7527 18.376C67.2567 17.72 66.5607 17.392 65.6647 17.392C63.7927 17.392 62.8567 18.656 62.8567 21.184C62.8567 23.712 63.7927 24.976 65.6647 24.976C66.5447 24.976 67.2407 24.648 67.7527 23.992C68.2647 23.336 68.5207 22.4 68.5207 21.184Z" fill="#121212"/>
<path d="M74.1115 13.552V10.336H77.7355V13.552H74.1115ZM74.2315 27.184V15.184H77.6395V27.184H74.2315Z" fill="#121212"/>
<path d="M80.0718 27.184V15.184H83.1438C83.1278 15.904 82.7358 16.824 81.9678 17.944H83.4558C83.7758 16.984 84.2478 16.224 84.8718 15.664C85.4958 15.104 86.2478 14.824 87.1278 14.824C88.4238 14.824 89.4238 15.224 90.1278 16.024C90.8478 16.808 91.2078 17.88 91.2078 19.24V27.184H87.7998V19.888C87.7998 18.384 87.1598 17.632 85.8798 17.632C85.1598 17.632 84.6238 17.848 84.2718 18.28C83.7438 18.92 83.4798 19.992 83.4798 21.496V27.184H80.0718Z" fill="#121212"/>
<path d="M18.3619 34.196C16.944 32.8756 15.8425 31.1183 15.3097 29.2365C14.6958 27.0987 14.6239 25.4935 12.7013 24.5137C11.9339 24.1243 11.3651 23.8298 10.3538 23.5924C9.47848 23.3832 6.99564 23.2505 6.19221 23.2415C5.95753 23.2415 5.72284 23.1273 5.59602 22.9181V22.9078C4.88281 21.7113 5.83986 20.2574 7.43756 20.2478C9.75762 20.2292 12.0234 20.5616 14.1722 21.5303C14.9848 21.9012 15.7523 22.3849 16.5465 22.8225C16.5191 22.87 15.0207 22.9078 14.0637 22.87C14.4435 23.2216 17.1336 24.1346 18.3619 34.196Z" fill="#121212"/>
<path d="M12.9816 29.0469C12.4763 31.9353 10.6982 34.8623 10.6982 34.8623C10.183 34.1687 9.75028 33.5701 9.25345 32.8862C8.88344 33.1903 6.86147 36.8294 0 37.0001C2.46453 33.1903 4.08969 29.0661 5.81356 24.9241L5.67824 28.6574C5.67824 28.6574 7.55573 27.2985 7.9983 24.353C8.04406 24.3626 11.3388 24.0303 12.5397 26.1488C13.0274 27.0233 13.1621 28.0595 12.9816 29.0469Z" fill="#121212"/>
<path d="M19.274 24.6478C18.4163 27.6601 19.1027 30.596 21.2783 33.3805C21.5405 33.7129 21.8745 34.008 22.272 34.4161C21.8562 33.3331 21.4503 32.3918 21.143 31.4327C19.563 27.2335 20.99 21.2853 21.0711 20.0117C21.0253 20.0296 19.7257 23.0797 19.274 24.6478Z" fill="#121212"/>
<path d="M22.0094 19.7827C20.8 23.7066 21.9649 27.8397 25.3859 32.0589C23.9058 28.7239 22.4964 25.4935 24.6008 13.8345C24.5099 13.8441 22.633 17.7398 22.0094 19.7827Z" fill="#121212"/>
<path d="M21.5123 16.7803C20.014 18.0814 18.515 20.2102 18.2627 23.1647C15.906 19.8015 13.3153 19.9439 11.2116 19.3831C12.2046 19.0027 12.3949 18.4233 12.3949 18.4233C11.0678 17.7676 10.1016 16.3998 10.1016 16.3998C9.92118 16.2381 11.8536 16.9316 13.397 16.6364C15.8616 16.1617 14.3175 13.2829 19.6891 14.1663C17.4952 12.8171 15.5452 12.6086 13.0813 12.4848C13.2166 12.2281 13.3879 11.677 13.3702 11.6013C11.5646 12.1235 9.24458 11.496 7.87176 13.1976C7.76324 13.0359 7.57366 12.7696 7.40304 12.4854C6.68983 11.3261 7.04218 10.5658 8.36859 10.3188C13.1806 9.41605 16.4852 10.2617 19.4459 11.8105C19.8434 12.0189 21.8026 13.0744 18.1914 18.9084C18.4261 18.5761 21.6581 15.1936 21.8385 13.8719C21.9647 14.1574 21.9824 14.1478 22.1 14.5372C22.37 15.4117 22.2524 16.1342 21.5123 16.7803Z" fill="#121212"/>
<path d="M9.07278 19.2501C6.30099 19.4028 5.57928 18.9749 6.08461 17.5114C6.40951 16.5901 7.69996 14.4991 8.24189 13.5964C8.38702 13.359 8.47658 13.1973 8.48573 13.1787C8.52234 13.3122 8.5583 13.445 8.5851 13.5778C8.67531 14.0525 8.68512 14.4805 8.63086 14.8789C8.62171 14.936 8.6119 14.9931 8.6034 15.0502C8.59425 15.0784 8.59425 15.1169 8.58575 15.1452C8.31511 16.3706 7.43062 17.5114 7.0057 18.4334C6.98805 18.4705 6.9691 18.5187 6.95145 18.5558C7.19528 18.6129 7.58425 18.4891 7.95426 18.4423C8.33342 18.3948 8.70342 18.4134 8.91915 18.7657C8.99171 18.8895 9.04597 19.0505 9.07278 19.2501Z" fill="#121212"/>
<path d="M29.4932 9.66345C29.1683 10.452 28.6355 10.7464 27.8779 10.8318C27.9498 10.6136 27.9949 10.4705 28.0851 10.1953C27.1555 10.1671 26.2887 10.1382 25.2773 10.1004C26.6855 9.18732 28.0668 9.58708 29.4932 9.66345Z" fill="#121212"/>
<path d="M33.2668 7.1254C32.4726 8.52215 30.531 9.34918 29.0059 8.89301C29.2321 8.66457 29.4393 8.44646 29.7191 8.16986C28.3744 7.90359 27.1552 8.14165 25.9092 8.3983C26.0994 8.11344 26.3066 7.87607 26.5505 7.70474C27.2186 7.21141 27.9854 7.05866 28.7803 7.0683C30.2702 7.07724 31.7691 7.10683 33.2668 7.1254Z" fill="#121212"/>
<path d="M30.8568 6.0518C31.1092 5.84332 31.353 5.64378 31.6962 5.35893C29.3036 4.92202 26.7482 6.11854 26.7129 6.06212C27.164 5.65273 27.5882 5.19724 28.0851 4.85528C29.0421 4.2092 30.1613 4.09498 31.2726 3.98076C32.5722 3.84797 33.8993 3.83834 34.9818 2.84961C35.2165 4.87385 33.1135 6.4894 30.8568 6.0518Z" fill="#121212"/>
<path d="M24.9434 0.579965C24.7172 0.987978 20.7177 1.41595 19.8692 1.90102C19.5443 2.09092 19.1468 2.58494 18.831 2.78379C18.5061 2.98401 18.3257 3.02186 17.9557 3.08791C17.3053 3.20213 16.764 3.51588 16.4214 4.1709C16.1776 4.63671 15.852 4.94083 15.4278 5.15894C14.5348 5.61581 13.7582 6.25225 13.4424 7.36345C13.243 8.04807 13.0626 8.6274 12.7109 8.57993C9.78614 8.18086 6.29199 9.43449 6.29199 9.43449C9.15399 0.105209 20.7726 0.428593 24.9434 0.579965Z" fill="#121212"/>
<path d="M25.5475 7.54443C25.2049 8.53247 24.6453 9.00792 23.8955 9.14071C23.0287 8.35152 22.2887 9.13039 21.395 9.23497C22.4965 7.68686 24.0949 8.00061 25.5475 7.54443Z" fill="#121212"/>
<path d="M24.6819 6.29109C24.7094 6.11013 24.7362 5.97734 24.7636 5.79707C23.5261 5.81702 22.407 6.07298 21.3604 6.77685C21.4591 6.57732 21.5323 6.37709 21.6493 6.19751C22.0553 5.57001 22.6423 5.18057 23.3098 5.01888C24.5459 4.73472 25.8102 4.55376 27.0556 4.33496C27.0837 4.40033 26.5333 5.97734 24.6819 6.29109Z" fill="#121212"/>
<path d="M33.0772 2.86986C31.8763 3.48704 30.5852 3.52557 29.2771 3.53452C27.7781 3.55309 26.2791 3.57305 24.7899 3.71547C23.5446 3.82969 22.3162 4.19023 21.4232 5.20717C20.4394 6.32869 20.0596 7.63943 20.5832 9.13112C21.0709 10.5375 22.1352 11.1457 23.4629 11.3735C23.5171 11.2311 23.5446 11.1272 23.589 11.0412C23.7786 10.6703 24.095 10.4522 24.4657 10.5568C24.7272 10.6324 25.0161 10.8416 25.1691 11.07C25.3953 11.4216 25.188 11.7732 24.9344 12.0299C24.4748 12.5143 23.8695 12.6003 23.2739 12.5521C19.23 12.2294 18.1821 8.0956 19.2928 5.48308C20.1949 3.35425 21.8475 2.3091 23.9695 1.91966C25.0972 1.71118 26.2798 1.74834 27.3277 0.988041C27.3819 1.29216 27.4264 1.53986 27.4898 1.85292C30.1531 2.16667 32.7444 2.15704 34.9736 0C34.8376 1.38711 34.1787 2.29947 33.0772 2.86986Z" fill="#121212"/>
</g>
<defs>
<clipPath id="clip0_5_134">
<rect width="94" height="37" fill="white"/>
</clipPath>
</defs>
</svg>
