<svg width="1546" height="253" viewBox="0 0 1546 253" fill="none" xmlns="http://www.w3.org/2000/svg">
<path d="M0 247.467V5.52997H52.4722V202.881H182.617V247.467H0Z" fill="white"/>
<path d="M203.001 247.467V5.52997H288.958L328.658 123.388C333.951 139.978 336.828 166.476 337.288 202.881H355.929C356.39 166.706 359.496 140.208 365.25 123.388L405.64 5.52997H488.49V247.467H436.018V151.383C436.018 117.282 444.418 80.5304 461.219 41.1292L441.887 33.5255L368.702 247.467H322.099L249.949 33.5255L230.617 41.1292C247.188 80.0695 255.473 116.821 255.473 151.383V247.467H203.001Z" fill="white"/>
<path d="M515.112 178.342L564.477 161.752C567.469 175.807 574.143 187.559 584.5 197.006C594.856 206.453 608.549 211.176 625.58 211.176C641.23 211.176 652.967 208.411 660.792 202.881C668.846 197.351 672.874 189.748 672.874 180.07C672.874 164.171 659.756 154.263 633.52 150.346L603.486 146.199C552.625 139.056 527.195 114.862 527.195 73.6179C527.195 52.65 535.71 35.1384 552.74 21.0831C570.001 7.02768 593.36 0 622.818 0C650.895 0 673.449 5.99081 690.48 17.9724C707.51 29.7236 719.017 45.2767 725.001 64.6317L676.671 81.5672C668.156 55.0694 650.205 41.8205 622.818 41.8205C609.24 41.8205 598.999 44.5855 592.094 50.1155C585.19 55.6454 581.738 62.7883 581.738 71.5441C581.738 85.8299 592.094 94.4705 612.807 97.4659L642.841 101.613C669.767 105.3 690.595 113.48 705.324 126.153C720.053 138.826 727.417 155.646 727.417 176.614C727.417 198.964 718.672 217.282 701.181 231.568C683.691 245.854 658.49 252.997 625.58 252.997C594.741 252.997 569.886 246.084 551.014 232.259C532.143 218.434 520.175 200.462 515.112 178.342Z" fill="white"/>
<path d="M813.348 127.19C813.348 90.323 825.085 59.9081 848.56 35.9449C872.264 11.9816 903.563 0 942.457 0C981.351 0 1012.54 11.9816 1036.01 35.9449C1059.71 59.9081 1071.57 90.323 1071.57 127.19C1072.03 163.826 1060.4 194.01 1036.7 217.743C1013 241.476 981.581 253.227 942.457 252.997C903.333 253.227 871.919 241.476 848.214 217.743C824.51 194.01 812.888 163.826 813.348 127.19ZM1016.68 126.844C1016.68 102.189 1010 82.1433 996.655 66.7054C983.307 51.2675 965.356 43.5486 942.802 43.5486C919.788 43.5486 901.607 51.2675 888.259 66.7054C874.911 82.1433 868.237 102.189 868.237 126.844C868.237 151.268 874.911 171.199 888.259 186.637C901.607 201.844 919.788 209.448 942.802 209.448C965.356 209.448 983.307 201.844 996.655 186.637C1010 171.199 1016.68 151.268 1016.68 126.844Z" fill="white"/>
<path d="M1106.44 227.421C1093.33 210.37 1086.77 188.25 1086.77 161.061C1086.77 133.872 1093.33 111.867 1106.44 95.0466C1119.79 77.9958 1136.94 69.4704 1157.88 69.4704C1184.58 69.4704 1203.68 83.0649 1215.18 110.254H1235.9C1231.76 103.342 1228.53 97.5811 1226.23 92.9728C1224.16 88.3645 1222.2 81.452 1220.36 72.2354C1218.52 63.0187 1217.6 52.074 1217.6 39.4011V5.52997H1266.62V247.467H1222.09C1222.09 238.25 1227.04 226.499 1236.93 212.213H1216.22C1210.01 225.347 1202.64 235.37 1194.13 242.282C1185.84 248.964 1173.76 252.536 1157.88 252.997C1136.94 252.997 1119.79 244.471 1106.44 227.421ZM1219.67 161.061C1219.67 143.319 1215.99 129.839 1208.63 120.623C1201.49 111.176 1191.48 106.452 1178.59 106.452C1151.67 106.452 1138.2 124.655 1138.2 161.061C1138.2 197.466 1151.67 215.669 1178.59 215.669C1191.25 215.669 1201.26 210.946 1208.63 201.499C1215.99 192.052 1219.67 178.572 1219.67 161.061Z" fill="white"/>
<path d="M1300.09 51.1523V4.83873H1352.22V51.1523H1300.09ZM1301.82 247.467V74.6548H1350.84V247.467H1301.82Z" fill="white"/>
<path d="M1385.82 247.467V74.6548H1430.01C1429.78 85.0235 1424.14 98.2724 1413.09 114.401H1434.5C1439.1 100.577 1445.89 89.6318 1454.86 81.5672C1463.84 73.5027 1474.66 69.4704 1487.31 69.4704C1505.96 69.4704 1520.34 75.2308 1530.47 86.7516C1540.82 98.042 1546 113.48 1546 133.065V247.467H1496.98V142.397C1496.98 120.738 1487.77 109.908 1469.36 109.908C1459.01 109.908 1451.3 113.019 1446.23 119.24C1438.64 128.457 1434.84 143.895 1434.84 165.554V247.467H1385.82Z" fill="white"/>
</svg>
