<svg width="94" height="37" viewBox="0 0 94 37" fill="none" xmlns="http://www.w3.org/2000/svg">
<g clip-path="url(#clip0_82_10)">
<path d="M24.9434 0.579965C24.7172 0.987978 20.7178 1.41595 19.8692 1.90102C19.5443 2.09092 19.1469 2.58494 18.8311 2.78379C18.5062 2.98401 18.3258 3.02186 17.9558 3.08791C17.3053 3.20213 16.764 3.51588 16.4215 4.1709C16.1776 4.63671 15.8521 4.94083 15.4278 5.15894C14.5348 5.61581 13.7582 6.25225 13.4425 7.36345C13.2431 8.04807 13.0627 8.6274 12.711 8.57993C9.7862 8.18086 6.29205 9.43449 6.29205 9.43449C9.15405 0.105209 20.7727 0.428593 24.9434 0.579965Z" fill="white"/>
<path d="M18.3617 34.196C16.9437 32.8756 15.8422 31.1183 15.3094 29.2365C14.6956 27.0987 14.6237 25.4935 12.7011 24.5137C11.9336 24.1243 11.3649 23.8298 10.3536 23.5924C9.47823 23.3832 6.99539 23.2505 6.19197 23.2415C5.95728 23.2415 5.7226 23.1273 5.59577 22.9181V22.9078C4.88256 21.7113 5.83961 20.2574 7.43731 20.2478C9.75737 20.2292 12.0232 20.5616 14.172 21.5303C14.9845 21.9012 15.752 22.3849 16.5463 22.8225C16.5188 22.87 15.0205 22.9078 14.0634 22.87C14.4433 23.2216 17.1333 24.1346 18.3617 34.196Z" fill="white"/>
<path d="M19.2743 24.6478C18.4166 27.6601 19.103 30.596 21.2786 33.3805C21.5407 33.7129 21.8748 34.008 22.2722 34.4161C21.8565 33.3331 21.4505 32.3918 21.1433 31.4327C19.5632 27.2335 20.9903 21.2853 21.0713 20.0117C21.0256 20.0296 19.726 23.0797 19.2743 24.6478Z" fill="white"/>
<path d="M22.0093 19.7827C20.7999 23.7066 21.9648 27.8397 25.3858 32.0589C23.9057 28.7239 22.4963 25.4935 24.6006 13.8345C24.5098 13.8441 22.6329 17.7398 22.0093 19.7827Z" fill="white"/>
<path d="M12.9816 29.0469C12.4763 31.9353 10.6982 34.8623 10.6982 34.8623C10.183 34.1687 9.75028 33.5701 9.25345 32.8862C8.88344 33.1903 6.86147 36.8294 0 37.0001C2.46453 33.1903 4.08969 29.0661 5.81356 24.9241L5.67824 28.6574C5.67824 28.6574 7.55573 27.2985 7.9983 24.353C8.04406 24.3626 11.3388 24.0303 12.5397 26.1488C13.0274 27.0233 13.1621 28.0595 12.9816 29.0469Z" fill="white"/>
<path d="M21.5126 16.7803C20.0142 18.0814 18.5153 20.2102 18.2629 23.1647C15.9063 19.8015 13.3156 19.9439 11.2119 19.3831C12.2049 19.0027 12.3951 18.4233 12.3951 18.4233C11.0681 17.7676 10.1019 16.3998 10.1019 16.3998C9.92142 16.2381 11.8538 16.9316 13.3973 16.6364C15.8618 16.1617 14.3177 13.2829 19.6893 14.1663C17.4955 12.8171 15.5454 12.6086 13.0815 12.4848C13.2168 12.2281 13.3881 11.677 13.3705 11.6013C11.5649 12.1235 9.24482 11.496 7.872 13.1976C7.76348 13.0359 7.5739 12.7696 7.40328 12.4854C6.69007 11.3261 7.04243 10.5658 8.36883 10.3188C13.1809 9.41605 16.4855 10.2617 19.4462 11.8105C19.8436 12.0189 21.8028 13.0744 18.1917 18.9084C18.4264 18.5761 21.6584 15.1936 21.8388 13.8719C21.965 14.1574 21.9826 14.1478 22.1003 14.5372C22.3703 15.4117 22.2526 16.1342 21.5126 16.7803Z" fill="white"/>
<path d="M29.4933 9.66345C29.1684 10.452 28.6356 10.7464 27.8779 10.8318C27.9498 10.6136 27.9949 10.4705 28.0851 10.1953C27.1556 10.1671 26.2887 10.1382 25.2774 10.1004C26.6855 9.18732 28.0668 9.58708 29.4933 9.66345Z" fill="white"/>
<path d="M33.2668 7.1254C32.4726 8.52215 30.531 9.34918 29.0059 8.89301C29.2321 8.66457 29.4393 8.44646 29.7191 8.16986C28.3744 7.90359 27.1552 8.14165 25.9092 8.3983C26.0994 8.11344 26.3066 7.87607 26.5505 7.70474C27.2186 7.21141 27.9854 7.05866 28.7803 7.0683C30.2702 7.07724 31.7691 7.10683 33.2668 7.1254Z" fill="white"/>
<path d="M30.857 6.0518C31.1093 5.84332 31.3531 5.64378 31.6963 5.35893C29.3037 4.92202 26.7483 6.11854 26.713 6.06212C27.1641 5.65273 27.5883 5.19724 28.0852 4.85528C29.0422 4.2092 30.1614 4.09498 31.2727 3.98076C32.5723 3.84797 33.8994 3.83834 34.982 2.84961C35.2166 4.87385 33.1136 6.4894 30.857 6.0518Z" fill="white"/>
<path d="M24.6817 6.29109C24.7092 6.11013 24.736 5.97734 24.7634 5.79707C23.526 5.81702 22.4068 6.07298 21.3602 6.77685C21.4589 6.57732 21.5321 6.37709 21.6491 6.19751C22.0551 5.57001 22.6421 5.18057 23.3096 5.01888C24.5458 4.73472 25.8101 4.55376 27.0554 4.33496C27.0835 4.40033 26.5331 5.97734 24.6817 6.29109Z" fill="white"/>
<path d="M25.5474 7.54443C25.2049 8.53247 24.6453 9.00792 23.8954 9.14071C23.0286 8.35152 22.2886 9.13039 21.395 9.23497C22.4965 7.68686 24.0948 8.00061 25.5474 7.54443Z" fill="white"/>
<path d="M33.0773 2.86986C31.8764 3.48704 30.5853 3.52557 29.2772 3.53452C27.7782 3.55309 26.2792 3.57305 24.79 3.71547C23.5447 3.82969 22.3164 4.19023 21.4234 5.20717C20.4395 6.32869 20.0597 7.63943 20.5833 9.13112C21.071 10.5375 22.1353 11.1457 23.463 11.3735C23.5172 11.2311 23.5447 11.1272 23.5892 11.0412C23.7787 10.6703 24.0951 10.4522 24.4658 10.5568C24.7273 10.6324 25.0162 10.8416 25.1692 11.07C25.3954 11.4216 25.1882 11.7732 24.9345 12.0299C24.4749 12.5143 23.8696 12.6003 23.2741 12.5521C19.2301 12.2294 18.1822 8.0956 19.2929 5.48308C20.195 3.35425 21.8476 2.3091 23.9696 1.91966C25.0973 1.71118 26.2799 1.74834 27.3278 0.988041C27.3821 1.29216 27.4265 1.53986 27.4899 1.85292C30.1532 2.16667 32.7445 2.15704 34.9737 0C34.8378 1.38711 34.1788 2.29947 33.0773 2.86986Z" fill="white"/>
<path d="M9.07253 19.2501C6.30075 19.4028 5.57904 18.9749 6.08437 17.5114C6.40927 16.5901 7.69971 14.4991 8.24165 13.5964C8.38678 13.359 8.47634 13.1973 8.48549 13.1787C8.5221 13.3122 8.55805 13.445 8.58485 13.5778C8.67507 14.0525 8.68487 14.4805 8.63062 14.8789C8.62146 14.936 8.61166 14.9931 8.60316 15.0502C8.59401 15.0784 8.59401 15.1169 8.58551 15.1452C8.31487 16.3706 7.43038 17.5114 7.00546 18.4334C6.98781 18.4705 6.96885 18.5187 6.9512 18.5558C7.19504 18.6129 7.58401 18.4891 7.95401 18.4423C8.33317 18.3948 8.70318 18.4134 8.91891 18.7657C8.99147 18.8895 9.04573 19.0505 9.07253 19.2501Z" fill="white"/>
<path d="M40.2719 18.832C40.2719 16.272 41.0879 14.16 42.7199 12.496C44.3679 10.832 46.5439 10 49.2479 10C51.9519 10 54.1199 10.832 55.7519 12.496C57.3999 14.16 58.2239 16.272 58.2239 18.832C58.2559 21.376 57.4479 23.472 55.7999 25.12C54.1519 26.768 51.9679 27.584 49.2479 27.568C46.5279 27.584 44.3439 26.768 42.6959 25.12C41.0479 23.472 40.2399 21.376 40.2719 18.832ZM54.4079 18.808C54.4079 17.096 53.9439 15.704 53.0159 14.632C52.0879 13.56 50.8399 13.024 49.2719 13.024C47.6719 13.024 46.4079 13.56 45.4799 14.632C44.5519 15.704 44.0879 17.096 44.0879 18.808C44.0879 20.504 44.5519 21.888 45.4799 22.96C46.4079 24.016 47.6719 24.544 49.2719 24.544C50.8399 24.544 52.0879 24.016 53.0159 22.96C53.9439 21.888 54.4079 20.504 54.4079 18.808Z" fill="white"/>
<path d="M60.6487 25.792C59.7367 24.608 59.2807 23.072 59.2807 21.184C59.2807 19.296 59.7367 17.768 60.6487 16.6C61.5767 15.416 62.7687 14.824 64.2247 14.824C66.0807 14.824 67.4087 15.768 68.2087 17.656H69.6487C69.3607 17.176 69.1367 16.776 68.9767 16.456C68.8327 16.136 68.6967 15.656 68.5687 15.016C68.4407 14.376 68.3767 13.616 68.3767 12.736V10.384H71.7847V27.184H68.6887C68.6887 26.544 69.0327 25.728 69.7207 24.736H68.2807C67.8487 25.648 67.3367 26.344 66.7447 26.824C66.1687 27.288 65.3287 27.536 64.2247 27.568C62.7687 27.568 61.5767 26.976 60.6487 25.792ZM68.5207 21.184C68.5207 19.952 68.2647 19.016 67.7527 18.376C67.2567 17.72 66.5607 17.392 65.6647 17.392C63.7927 17.392 62.8567 18.656 62.8567 21.184C62.8567 23.712 63.7927 24.976 65.6647 24.976C66.5447 24.976 67.2407 24.648 67.7527 23.992C68.2647 23.336 68.5207 22.4 68.5207 21.184Z" fill="white"/>
<path d="M74.1115 13.552V10.336H77.7355V13.552H74.1115ZM74.2315 27.184V15.184H77.6395V27.184H74.2315Z" fill="white"/>
<path d="M80.0718 27.184V15.184H83.1438C83.1278 15.904 82.7358 16.824 81.9678 17.944H83.4558C83.7758 16.984 84.2478 16.224 84.8718 15.664C85.4958 15.104 86.2478 14.824 87.1278 14.824C88.4238 14.824 89.4238 15.224 90.1278 16.024C90.8478 16.808 91.2078 17.88 91.2078 19.24V27.184H87.7998V19.888C87.7998 18.384 87.1598 17.632 85.8798 17.632C85.1598 17.632 84.6238 17.848 84.2718 18.28C83.7438 18.92 83.4798 19.992 83.4798 21.496V27.184H80.0718Z" fill="white"/>
</g>
<defs>
<clipPath id="clip0_82_10">
<rect width="94" height="37" fill="white"/>
</clipPath>
</defs>
</svg>
